<?xml version="1.0" encoding="utf-8"?>
<!-- Generator: Adobe Illustrator 26.0.3, SVG Export Plug-In . SVG Version: 6.00 Build 0)  -->
<svg version="1.1" id="レイヤー_1" xmlns="http://www.w3.org/2000/svg" xmlns:xlink="http://www.w3.org/1999/xlink" x="0px"
	 y="0px" viewBox="0 0 180 33" style="enable-background:new 0 0 180 33;" xml:space="preserve">
<style type="text/css">
	.st0{fill:#8B1C21;}
</style>
<g>
	<path class="st0" d="M53.5,3.9h12l2.5,23.3h-9.5l-0.1-3.7h-6.7l-1.7,3.7h-8.8L53.5,3.9z M58.1,17.8l0-8.8h-0.1l-3.9,8.8H58.1z"/>
	<path class="st0" d="M74.3,3.9h11.1L87.3,18h0.1l3-14.1h7.5l-5,23.3H81.8L79.9,13h-0.1l-3,14.2h-7.5L74.3,3.9z"/>
	<path class="st0" d="M101.4,3.9h9.2l-5,23.3h-9.2L101.4,3.9z"/>
	<path class="st0" d="M114.3,3.9H132l-1.3,6.1h-8.9l-0.5,2.5h8.2l-1.3,6.1H120l-0.6,2.6h9.2l-1.3,6.1h-18L114.3,3.9z"/>
	<path class="st0" d="M134.9,3.9h13.8c5,0,7.6,1.5,6.7,5.9c-0.6,2.7-2.1,4.7-5.8,5.5l0,0.1c2.2,0.2,3.2,1.2,3.3,3
		c0.1,2-0.7,5.3-0.4,8.8h-9c-0.2-1.7,0.2-4.7,0.3-6.7c0.1-1.2-0.4-1.6-1.9-1.6h-1.1l-1.8,8.3h-9L134.9,3.9z M142.6,13.6
		c1.8,0,3.2-0.6,3.6-2.4c0.4-1.7-0.8-2.1-2.6-2.1h-0.8l-0.9,4.4H142.6z"/>
	<path class="st0" d="M165.5,3.9h12l2.5,23.3h-9.5l-0.1-3.7h-6.7l-1.7,3.7h-8.8L165.5,3.9z M170.2,17.8l0-8.8h-0.1l-3.9,8.8H170.2z"
		/>
	<path class="st0" d="M24.9,8.5l-3.4-6.4C20.8,0.8,19.5,0,18,0l-4.1,0c-1.5,0-2.8,0.8-3.5,2.1L0,21.6c-0.1,0.2,0,0.5,0.3,0.5H8
		c0.3,0,0.5-0.1,0.6-0.4l7.1-13.3c0.1-0.2,0.5-0.2,0.6,0l3.9,7.4c0.1,0.2,0.5,0.2,0.6,0l4.1-6.8C25,9,25,8.7,24.9,8.5z"/>
	<path class="st0" d="M16.1,24.5l3.4,6.4c0.7,1.3,2,2.1,3.5,2.1h4.1c1.5,0,2.8-0.8,3.5-2.1L41,11.3c0.1-0.2,0-0.5-0.3-0.5h-7.6
		c-0.3,0-0.5,0.1-0.6,0.4l-7.1,13.3c-0.1,0.2-0.5,0.2-0.6,0L20.8,17c-0.1-0.2-0.5-0.2-0.6,0l-4.1,6.8C16,24,16,24.3,16.1,24.5z"/>
</g>
</svg>
