<?xml version="1.0" encoding="utf-8"?>
<!-- Generator: Adobe Illustrator 25.2.3, SVG Export Plug-In . SVG Version: 6.00 Build 0)  -->
<svg version="1.1" id="レイヤー_1" xmlns="http://www.w3.org/2000/svg" xmlns:xlink="http://www.w3.org/1999/xlink" x="0px"
	 y="0px" viewBox="0 0 49.1 29.1" style="enable-background:new 0 0 49.1 29.1;" xml:space="preserve">
<style type="text/css">
	.st0{fill:#B3B3B3;}
</style>
<g>
	<g>
		<path class="st0" d="M3.4,26.2C0.6,23,0,18.8,0,15.3c0-3.4,0.6-7.7,3.4-10.9c1.7-1.9,3.7-2.9,6-2.9c2.4,0,4.4,1,6,2.9
			c2.8,3.2,3.4,7.5,3.4,10.9c0,3.5-0.6,7.7-3.4,10.9c-1.7,1.9-3.6,2.9-6,2.9C7,29.1,5.1,28.1,3.4,26.2z M5.8,7.3
			C4.4,9.5,4,13,4,15.3c0,2.4,0.4,5.8,1.8,8C7,25,8.4,25.5,9.4,25.5c1,0,2.4-0.4,3.6-2.2c1.5-2.2,1.8-5.6,1.8-8c0-2.3-0.4-5.8-1.8-8
			c-1.2-1.8-2.6-2.2-3.6-2.2C8.4,5.1,7,5.6,5.8,7.3z"/>
		<path class="st0" d="M46.2,19.8h2.9v3.8h-2.9v5h-3.9v-5H29.1L46.2,0V19.8z M42.3,19.9v-8.6l-6.1,8.6H42.3z"/>
	</g>
</g>
</svg>
