<?xml version="1.0" encoding="utf-8"?>
<!-- Generator: Adobe Illustrator 25.2.3, SVG Export Plug-In . SVG Version: 6.00 Build 0)  -->
<svg version="1.1" id="レイヤー_1" xmlns="http://www.w3.org/2000/svg" xmlns:xlink="http://www.w3.org/1999/xlink" x="0px"
	 y="0px" viewBox="0 0 23.4 23.4" style="enable-background:new 0 0 23.4 23.4;" xml:space="preserve">
<style type="text/css">
	.st0{fill:#940012;}
</style>
<path class="st0" d="M23.2,22l-4.4-4.4c1.7-1.9,2.6-4.4,2.6-6.9c0-2.9-1.1-5.5-3.1-7.5S13.5,0,10.7,0S5.1,1.1,3.1,3.1S0,7.8,0,10.7
	s1.1,5.5,3.1,7.5s4.7,3.1,7.5,3.1c2.6,0,5-0.9,6.9-2.6l4.4,4.4c0.2,0.2,0.4,0.2,0.6,0.2s0.4-0.1,0.6-0.2
	C23.5,22.8,23.5,22.3,23.2,22z M4.3,17.1c-1.7-1.7-2.6-4-2.6-6.4S2.6,6,4.3,4.3s4-2.6,6.4-2.6s4.7,0.9,6.4,2.6s2.6,4,2.6,6.4
	s-0.9,4.7-2.6,6.4s-4,2.6-6.4,2.6S6,18.8,4.3,17.1z"/>
</svg>
