<?xml version="1.0" encoding="utf-8"?>
<!-- Generator: Adobe Illustrator 25.4.1, SVG Export Plug-In . SVG Version: 6.00 Build 0)  -->
<svg version="1.1" id="レイヤー_1" xmlns="http://www.w3.org/2000/svg" xmlns:xlink="http://www.w3.org/1999/xlink" x="0px"
	 y="0px" viewBox="0 0 27.7 26.5" style="enable-background:new 0 0 27.7 26.5;" xml:space="preserve">
<style type="text/css">
	.st0{fill:#940012;}
</style>
<g>
	<path class="st0" d="M13.9,2.9l2.4,7.4c0.1,0.4,0.5,0.7,1,0.7h7.6l-6.2,4.5c-0.4,0.3-0.5,0.7-0.4,1.1l2.4,7.4l-6.3-4.6
		c-0.2-0.1-0.4-0.2-0.6-0.2c-0.2,0-0.4,0.1-0.6,0.2L7,24.1l2.4-7.4c0.1-0.4,0-0.9-0.4-1.1L2.8,11h7.6c0.4,0,0.8-0.3,1-0.7L13.9,2.9
		 M13.9,0h-0.2l-3.3,10H0v0.2l8.5,6.1L5.1,26.5l0.1,0.1l8.6-6.2l8.6,6.2l0.1-0.1l-3.3-10.1l8.5-6.1V10H17.2L13.9,0L13.9,0z"/>
</g>
</svg>
