<?xml version="1.0" encoding="utf-8"?>
<!-- Generator: Adobe Illustrator 25.2.3, SVG Export Plug-In . SVG Version: 6.00 Build 0)  -->
<svg version="1.1" id="レイヤー_1" xmlns="http://www.w3.org/2000/svg" xmlns:xlink="http://www.w3.org/1999/xlink" x="0px"
	 y="0px" viewBox="0 0 22.2 21.3" style="enable-background:new 0 0 22.2 21.3;" xml:space="preserve">
<style type="text/css">
	.st0{fill:#FFFFFF;}
</style>
<g>
	<path class="st0" d="M17.7,21.3c-0.1,0-0.2,0-0.3-0.1l-6.3-4.6l-6.3,4.6c-0.2,0.1-0.4,0.1-0.5,0l-0.1,0c-0.2-0.1-0.3-0.4-0.3-0.6
		l2.4-7.4L0.2,8.7C0.1,8.6,0,8.5,0,8.3V8.2c0-0.3,0.2-0.5,0.5-0.5h7.6l2.4-7.3C10.6,0.1,10.8,0,11,0h0.1c0.2,0,0.4,0.1,0.5,0.3
		L14,7.7h7.6c0.3,0,0.5,0.2,0.5,0.5v0.1c0,0.2-0.1,0.3-0.2,0.4l-6.2,4.5l2.4,7.4c0.1,0.2,0,0.5-0.3,0.6l-0.1,0
		C17.8,21.3,17.7,21.3,17.7,21.3z M11.1,15.5c0.1,0,0.2,0,0.3,0.1l5.5,4l-2.1-6.4c-0.1-0.2,0-0.4,0.2-0.6l5.4-3.9h-6.6
		c-0.2,0-0.4-0.1-0.5-0.3l-2.1-6.4L9,8.3C8.9,8.5,8.7,8.7,8.5,8.7H1.8l5.4,3.9c0.2,0.1,0.2,0.4,0.2,0.6l-2.1,6.4l5.5-4
		C10.9,15.5,11,15.5,11.1,15.5z"/>
</g>
</svg>
