<svg xmlns="http://www.w3.org/2000/svg" viewBox="0 0 131.03 13.94"><g id="レイヤー_2" data-name="レイヤー 2"><g id="Contents"><path d="M10.26,13.22a6.2,6.2,0,0,1-2.94.72A7.15,7.15,0,0,1,2.08,12,7,7,0,0,1,0,6.94a7,7,0,0,1,2.08-5A7.08,7.08,0,0,1,7.06,0a7.94,7.94,0,0,1,3.2.74V4.3A4.23,4.23,0,0,0,7.14,2.88a3.74,3.74,0,0,0-2.72,1A4.27,4.27,0,0,0,3.16,7,4,4,0,0,0,4.32,9.94,4,4,0,0,0,7.2,11.06a4.21,4.21,0,0,0,3.06-1.38Z" style="fill:#ff4033"/><path d="M24.8,11.12h-5l-1,2.52h-3.2L20.92.3h2.82L29,13.64H25.8ZM24,8.76,22.32,4.28,20.66,8.76Z" style="fill:#ff4033"/><path d="M34.22,13.64,36.36.3h2.56l3.33,8,3.32-8h2.56l2.14,13.34H47.19l-1.06-8-3.34,8H41.71l-3.35-8-1.06,8Z" style="fill:#ff4033"/><path d="M61.25.3a5,5,0,0,1,3.5,1.1,4.1,4.1,0,0,1,1.3,3.24,4.29,4.29,0,0,1-1.14,3.14A4.55,4.55,0,0,1,61.51,9H59.63v4.68H56.55V.3ZM59.63,6.44h1.1a2.36,2.36,0,0,0,1.66-.5,1.86,1.86,0,0,0,.5-1.32,1.76,1.76,0,0,0-.5-1.3,2.4,2.4,0,0,0-1.72-.5h-1Z" style="fill:#ff4033"/><path d="M78.91,11.12h-5l-1,2.52h-3.2L75,.3h2.82l5.27,13.34h-3.2Zm-.85-2.36L76.42,4.28,74.76,8.76Z" style="fill:#ff4033"/><path d="M91.74.3V13.64H88.66V.3Z" style="fill:#ff4033"/><path d="M105.17,6.36h6.62V6.5a8.67,8.67,0,0,1-2.06,5.62A6.12,6.12,0,0,1,105,13.94a6.27,6.27,0,0,1-4.88-1.86,7.07,7.07,0,0,1-2-5.08,7.12,7.12,0,0,1,1.92-5.06A6.86,6.86,0,0,1,105.29,0,6.72,6.72,0,0,1,109,1a7.37,7.37,0,0,1,2.16,2.38l-2.78,1.5a4,4,0,0,0-1.18-1.44,3.35,3.35,0,0,0-2-.64,3.61,3.61,0,0,0-2.76,1.08A4.57,4.57,0,0,0,101.29,7a4.19,4.19,0,0,0,1.12,3.06,3.51,3.51,0,0,0,2.7,1,3.42,3.42,0,0,0,2.32-.72,3.11,3.11,0,0,0,1-1.58h-3.22Z" style="fill:#ff4033"/><path d="M118,13.64V.3h2.68L128,8.9V.3H131V13.64h-2.68L121.11,5v8.64Z" style="fill:#ff4033"/></g></g></svg>