<svg xmlns="http://www.w3.org/2000/svg" viewBox="0 0 251.8 13.94"><g id="レイヤー_2" data-name="レイヤー 2"><g id="Contents"><path d="M4.22.3A7,7,0,0,1,9.48,2.14,6.37,6.37,0,0,1,11.4,6.92a6.38,6.38,0,0,1-1.82,4.72,7.19,7.19,0,0,1-5.26,2H0V.3ZM3.08,11H3.9a4.81,4.81,0,0,0,3-.9,4.17,4.17,0,0,0,1.3-3.22A4,4,0,0,0,7.14,4,4.4,4.4,0,0,0,3.9,2.9H3.08Z" style="fill:#ff4033"/><path d="M25.26,2.9H20.8V5.48H25v2.6H20.8v3h4.46v2.6H17.72V.3h7.54Z" style="fill:#ff4033"/><path d="M35.07.3V11h4.14v2.6H32V.3Z" style="fill:#ff4033"/><path d="M48,.3V13.64H44.88V.3Z" style="fill:#ff4033"/><path d="M56.83.3l3.38,8.54L63.59.3h3.32L61.25,13.64H59.17L53.51.3Z" style="fill:#ff4033"/><path d="M80,2.9H75.55V5.48h4.24v2.6H75.55v3H80v2.6H72.47V.3H80Z" style="fill:#ff4033"/><path d="M91.42.3a4.77,4.77,0,0,1,3.4,1.16,4,4,0,0,1,1.16,3,3.65,3.65,0,0,1-1,2.72,4.2,4.2,0,0,1-1.86,1l4.1,5.46H93.42l-3.6-5.26v5.26H86.74V.3Zm-1.6,6.06h.7a2.53,2.53,0,0,0,1.84-.58,1.8,1.8,0,0,0,.5-1.3,1.62,1.62,0,0,0-.62-1.36,3,3,0,0,0-1.7-.42h-.72Z" style="fill:#ff4033"/><path d="M105.45,7.42,100.67.3h3.64L107,4.44,109.67.3h3.64l-4.78,7.12v6.22h-3.08Z" style="fill:#ff4033"/><path d="M132.13.3a5,5,0,0,1,3.5,1.1,4.1,4.1,0,0,1,1.3,3.24,4.29,4.29,0,0,1-1.14,3.14A4.55,4.55,0,0,1,132.39,9h-1.88v4.68h-3.08V.3Zm-1.62,6.14h1.1a2.36,2.36,0,0,0,1.66-.5,1.86,1.86,0,0,0,.5-1.32,1.76,1.76,0,0,0-.5-1.3,2.4,2.4,0,0,0-1.72-.5h-1Z" style="fill:#ff4033"/><path d="M154,8.2a5.66,5.66,0,0,1-1.48,4.22,6.45,6.45,0,0,1-8.32,0,5.63,5.63,0,0,1-1.49-4.22V.3h3.09V8.12a3.15,3.15,0,0,0,.7,2.24,2.82,2.82,0,0,0,3.72,0,3.15,3.15,0,0,0,.7-2.24V.3H154Z" style="fill:#ff4033"/><path d="M165.68.3a4.77,4.77,0,0,1,3.4,1.16,4,4,0,0,1,1.16,3,3.65,3.65,0,0,1-1,2.72,4.2,4.2,0,0,1-1.86,1l4.1,5.46h-3.76l-3.6-5.26v5.26H161V.3Zm-1.6,6.06h.7a2.53,2.53,0,0,0,1.84-.58,1.8,1.8,0,0,0,.5-1.3,1.62,1.62,0,0,0-.62-1.36,3,3,0,0,0-1.7-.42h-.72Z" style="fill:#ff4033"/><path d="M186.35,13.22a6.2,6.2,0,0,1-2.94.72A7.15,7.15,0,0,1,178.17,12a7,7,0,0,1-2.08-5.06,7,7,0,0,1,2.08-5,7.08,7.08,0,0,1,5-1.92,7.94,7.94,0,0,1,3.2.74V4.3a4.23,4.23,0,0,0-3.12-1.42,3.74,3.74,0,0,0-2.72,1A4.27,4.27,0,0,0,179.25,7a4,4,0,0,0,1.16,2.94,4,4,0,0,0,2.88,1.12,4.21,4.21,0,0,0,3.06-1.38Z" style="fill:#ff4033"/><path d="M196.12,5.38h5.33V.3h3.08V13.64h-3.08V8h-5.33v5.66H193V.3h3.08Z" style="fill:#ff4033"/><path d="M219.32,11.12h-5l-1,2.52h-3.2L215.44.3h2.82l5.26,13.34h-3.2Zm-.84-2.36-1.64-4.48-1.66,4.48Z" style="fill:#ff4033"/><path d="M236.05,3.56a3.25,3.25,0,0,0-2.24-1,1.67,1.67,0,0,0-1.3.46,1.19,1.19,0,0,0-.34.84.94.94,0,0,0,.3.74,5.36,5.36,0,0,0,1.68.76l1,.38a5.26,5.26,0,0,1,1.82,1,3.34,3.34,0,0,1,1,2.48,4.79,4.79,0,0,1-1.19,3.3A5.17,5.17,0,0,1,233,13.94a5.65,5.65,0,0,1-2.64-.56,8.48,8.48,0,0,1-2-1.46l1.6-2.2a8.17,8.17,0,0,0,1.24,1,3.1,3.1,0,0,0,1.68.48,2.13,2.13,0,0,0,1.4-.46,1.38,1.38,0,0,0,.48-1.08,1.18,1.18,0,0,0-.46-1A6.52,6.52,0,0,0,232.77,8l-1.1-.38a4.49,4.49,0,0,1-1.86-1.06,3.28,3.28,0,0,1-.8-2.32,4.1,4.1,0,0,1,1.16-3A4.3,4.3,0,0,1,233.47,0a6.43,6.43,0,0,1,4,1.32Z" style="fill:#ff4033"/><path d="M251.8,2.9h-4.46V5.48h4.24v2.6h-4.24v3h4.46v2.6h-7.54V.3h7.54Z" style="fill:#ff4033"/></g></g></svg>