<svg xmlns="http://www.w3.org/2000/svg" viewBox="0 0 100.04 13.94"><g id="レイヤー_2" data-name="レイヤー 2"><g id="Contents"><path d="M7.54,2.9H3.08V5.48H7.32v2.6H3.08v3H7.54v2.6H0V.3H7.54Z" style="fill:#ff4033"/><path d="M19,.3a5,5,0,0,1,3.5,1.1,4.1,4.1,0,0,1,1.3,3.24,4.29,4.29,0,0,1-1.14,3.14A4.55,4.55,0,0,1,19.23,9H17.35v4.68H14.27V.3ZM17.35,6.44h1.1a2.36,2.36,0,0,0,1.66-.5,1.86,1.86,0,0,0,.5-1.32,1.76,1.76,0,0,0-.5-1.3,2.4,2.4,0,0,0-1.72-.5h-1Z" style="fill:#ff4033"/><path d="M32.77.3V13.64H29.69V.3Z" style="fill:#ff4033"/><path d="M46.53,3.56a3.25,3.25,0,0,0-2.24-1,1.67,1.67,0,0,0-1.3.46,1.19,1.19,0,0,0-.34.84.94.94,0,0,0,.3.74,5.36,5.36,0,0,0,1.68.76l1,.38a5.35,5.35,0,0,1,1.82,1,3.33,3.33,0,0,1,1,2.48,4.78,4.78,0,0,1-1.18,3.3,5.17,5.17,0,0,1-3.78,1.36,5.65,5.65,0,0,1-2.64-.56,8.48,8.48,0,0,1-2-1.46l1.6-2.2a8.17,8.17,0,0,0,1.24,1,3.1,3.1,0,0,0,1.68.48,2.13,2.13,0,0,0,1.4-.46,1.38,1.38,0,0,0,.48-1.08,1.18,1.18,0,0,0-.46-1A6.52,6.52,0,0,0,43.25,8l-1.1-.38a4.49,4.49,0,0,1-1.86-1.06,3.28,3.28,0,0,1-.8-2.32,4.1,4.1,0,0,1,1.16-3A4.3,4.3,0,0,1,44,0a6.45,6.45,0,0,1,4,1.32Z" style="fill:#ff4033"/><path d="M66.38,1.94a7,7,0,0,1,2.08,5,6.94,6.94,0,0,1-2.08,5,7.16,7.16,0,0,1-5.17,2A7.34,7.34,0,0,1,56,12a6.81,6.81,0,0,1-2.08-5A7.45,7.45,0,0,1,56,2a7.9,7.9,0,0,1,10.39,0ZM58.27,4a4.09,4.09,0,0,0-1.18,3,4,4,0,0,0,1.22,3,3.92,3.92,0,0,0,2.86,1.1,4,4,0,0,0,3-1.14,4,4,0,0,0,1.16-3,4.2,4.2,0,0,0-1.16-3,4.28,4.28,0,0,0-2.94-1.14A4.09,4.09,0,0,0,58.27,4Z" style="fill:#ff4033"/><path d="M79,.3a7,7,0,0,1,5.26,1.84,6.37,6.37,0,0,1,1.92,4.78,6.38,6.38,0,0,1-1.82,4.72,7.19,7.19,0,0,1-5.26,2H74.78V.3ZM77.86,11h.82a4.81,4.81,0,0,0,3-.9A4.17,4.17,0,0,0,83,6.92,4,4,0,0,0,81.92,4,4.4,4.4,0,0,0,78.68,2.9h-.82Z" style="fill:#ff4033"/><path d="M100,2.9H95.58V5.48h4.24v2.6H95.58v3H100v2.6H92.5V.3H100Z" style="fill:#ff4033"/></g></g></svg>