<svg xmlns="http://www.w3.org/2000/svg" viewBox="0 0 111.85 13.94"><g id="レイヤー_2" data-name="レイヤー 2"><g id="Contents"><path d="M7.54,2.9H3.08V5.48H7.32v2.6H3.08v3H7.54v2.6H0V.3H7.54Z" style="fill:#ff4033"/><path d="M20.94,3.56a3.25,3.25,0,0,0-2.24-1,1.67,1.67,0,0,0-1.3.46,1.19,1.19,0,0,0-.34.84.94.94,0,0,0,.3.74A5.36,5.36,0,0,0,19,5.4l1,.38a5.35,5.35,0,0,1,1.82,1,3.33,3.33,0,0,1,1,2.48,4.78,4.78,0,0,1-1.18,3.3,5.17,5.17,0,0,1-3.78,1.36,5.65,5.65,0,0,1-2.64-.56,8.48,8.48,0,0,1-2-1.46l1.6-2.2a8.17,8.17,0,0,0,1.24,1,3.1,3.1,0,0,0,1.68.48,2.13,2.13,0,0,0,1.4-.46,1.38,1.38,0,0,0,.48-1.08,1.18,1.18,0,0,0-.46-1A6.52,6.52,0,0,0,17.66,8l-1.1-.38A4.49,4.49,0,0,1,14.7,6.54a3.28,3.28,0,0,1-.8-2.32,4.1,4.1,0,0,1,1.16-3A4.3,4.3,0,0,1,18.36,0a6.45,6.45,0,0,1,4,1.32Z" style="fill:#ff4033"/><path d="M33.8,2.9V13.64H30.72V2.9h-2.9V.3H36.7V2.9Z" style="fill:#ff4033"/><path d="M45.39.3V13.64H42.31V.3Z" style="fill:#ff4033"/><path d="M51.7,13.64,53.84.3H56.4l3.32,8L63,.3H65.6l2.14,13.34H64.66l-1.06-8-3.34,8H59.18l-3.34-8-1.06,8Z" style="fill:#ff4033"/><path d="M82.23,11.12h-5l-1,2.52H73L78.35.3h2.82l5.27,13.34H83.23Zm-.84-2.36L79.75,4.28,78.09,8.76Z" style="fill:#ff4033"/><path d="M95.83,2.9V13.64H92.75V2.9H89.84V.3h8.89V2.9Z" style="fill:#ff4033"/><path d="M111.85,2.9h-4.46V5.48h4.24v2.6h-4.24v3h4.46v2.6h-7.54V.3h7.54Z" style="fill:#ff4033"/></g></g></svg>