<svg xmlns="http://www.w3.org/2000/svg" viewBox="0 0 14.94 14.26"><g id="レイヤー_2" data-name="レイヤー 2"><g id="Contents"><path d="M10.74,12.9a5.88,5.88,0,0,1-3.74,1A6.51,6.51,0,0,1,2.1,12,7,7,0,0,1,0,7,7.12,7.12,0,0,1,2,2,7.26,7.26,0,0,1,7.24,0,7.54,7.54,0,0,1,12.4,1.92,6.82,6.82,0,0,1,14.48,7a6.12,6.12,0,0,1-.56,2.58,5,5,0,0,1-1.3,1.8l2.32,2.52-2.9.36Zm-.2-3.54A3.8,3.8,0,0,0,11.32,7,4.06,4.06,0,0,0,10.18,4,4.09,4.09,0,0,0,7.24,2.84,4.09,4.09,0,0,0,4.32,4,4.45,4.45,0,0,0,3.16,7a4.18,4.18,0,0,0,1.12,2.9A3.84,3.84,0,0,0,7.16,11.1a3.71,3.71,0,0,0,1.6-.34L6.36,8.4l3-.32Z" style="fill:#ff4033"/></g></g></svg>