<svg xmlns="http://www.w3.org/2000/svg" viewBox="0 0 44.15 14.26"><g id="レイヤー_2" data-name="レイヤー 2"><g id="Contents"><path d="M7.4,2.9H3.08V5.48h4v2.6h-4v5.56H0V.3H7.4Z" style="fill:#ff4033"/><path d="M20.69,11.12h-5l-1,2.52h-3.2L16.81.3h2.82l5.26,13.34h-3.2Zm-.84-2.36L18.21,4.28,16.55,8.76Z" style="fill:#ff4033"/><path d="M40,12.9a5.88,5.88,0,0,1-3.74,1,6.51,6.51,0,0,1-4.9-1.9A7,7,0,0,1,29.21,7a7.12,7.12,0,0,1,2-5,7.26,7.26,0,0,1,5.22-2,7.54,7.54,0,0,1,5.16,1.92A6.82,6.82,0,0,1,43.69,7a6.12,6.12,0,0,1-.56,2.58,5,5,0,0,1-1.3,1.8l2.32,2.52-2.9.36Zm-.2-3.54A3.8,3.8,0,0,0,40.53,7,4.06,4.06,0,0,0,39.39,4a4.23,4.23,0,0,0-5.86,0,4.45,4.45,0,0,0-1.16,3,4.18,4.18,0,0,0,1.12,2.9,3.84,3.84,0,0,0,2.88,1.18,3.71,3.71,0,0,0,1.6-.34L35.57,8.4l3-.32Z" style="fill:#ff4033"/></g></g></svg>