<svg xmlns="http://www.w3.org/2000/svg" viewBox="0 0 45 37"><g id="レイヤー_2" data-name="レイヤー 2"><g id="Contents"><path d="M41,31.6a16.12,16.12,0,0,1-11,4.87L11.4,37a3.51,3.51,0,0,1-2.58-1,3.73,3.73,0,0,1,.11-5.22,6.27,6.27,0,0,1,2.3-1.48l6.7-2L1.06,10.22a3.91,3.91,0,0,1,.12-5.48,3.81,3.81,0,0,1,5.41-.12l4.85,4.92a4.09,4.09,0,0,1,1.13-2.22,3.86,3.86,0,0,1,4.66-.7,4.11,4.11,0,0,1,1.15-2.36,3.84,3.84,0,0,1,4.67-.7A4.05,4.05,0,0,1,24.2,1.19a3.8,3.8,0,0,1,5.4-.12l11.85,12C46.37,18,46.15,26.35,41,31.6ZM10,31.88a2.12,2.12,0,0,0-.11,3,1.94,1.94,0,0,0,1.43.57l18.54-.53a14.56,14.56,0,0,0,10-4.41c4.57-4.63,4.79-11.94.48-16.3L28.5,2.19a2.26,2.26,0,0,0-3.2.12,2.33,2.33,0,0,0-.12,3.24l3.63,3.67a.79.79,0,0,1,0,1.12.77.77,0,0,1-1.1,0l-5-5.09a2.24,2.24,0,0,0-3.19.13,2.3,2.3,0,0,0-.12,3.23l5,5.08a.79.79,0,0,1,0,1.12.78.78,0,0,1-1.11,0L16.87,8.32a2.26,2.26,0,0,0-3.2.12,2.33,2.33,0,0,0-.12,3.24L20,18.17a.81.81,0,0,1,0,1.12.78.78,0,0,1-1.11,0L5.48,5.74a2.26,2.26,0,0,0-3.2.12A2.33,2.33,0,0,0,2.16,9.1L20,27.12a.81.81,0,0,1,.2.76.79.79,0,0,1-.53.56l-7.93,2.34A4.7,4.7,0,0,0,10,31.88Z" style="fill:#fff"/></g></g></svg>