<svg xmlns="http://www.w3.org/2000/svg" viewBox="0 0 64.52 13.94"><g id="レイヤー_2" data-name="レイヤー 2"><g id="Contents"><path d="M7.4,2.9H3.08V5.48h4v2.6h-4v5.56H0V.3H7.4Z" style="fill:#ff4033"/><path d="M16.73.3V11h4.14v2.6H13.65V.3Z" style="fill:#ff4033"/><path d="M38.13,1.94a6.94,6.94,0,0,1,2.08,5,6.9,6.9,0,0,1-2.08,5,7.12,7.12,0,0,1-5.16,2,7.34,7.34,0,0,1-5.2-2,6.81,6.81,0,0,1-2.08-5A7.45,7.45,0,0,1,27.75,2,7.16,7.16,0,0,1,33,0,7.13,7.13,0,0,1,38.13,1.94ZM30,4a4.09,4.09,0,0,0-1.18,3,4,4,0,0,0,1.22,3,3.92,3.92,0,0,0,2.86,1.1,4,4,0,0,0,3-1.14,4,4,0,0,0,1.16-3,4.2,4.2,0,0,0-1.16-3A4.28,4.28,0,0,0,33,2.84,4.09,4.09,0,0,0,30,4Z" style="fill:#ff4033"/><path d="M47.84.3l2.84,8.84L53.52.3h2.12l2.84,8.84L61.32.3h3.2L60,13.64h-2.6l-2.8-8.1-2.8,8.1h-2.6L44.64.3Z" style="fill:#ff4033"/></g></g></svg>