<svg xmlns="http://www.w3.org/2000/svg" xmlns:xlink="http://www.w3.org/1999/xlink" viewBox="0 0 52.79 53.48"><defs><clipPath id="clip-path"><circle cx="26.4" cy="26.4" r="26.4" style="fill:none"/></clipPath></defs><g id="レイヤー_2" data-name="レイヤー 2"><g id="Contents"><circle cx="26.4" cy="26.4" r="26.4" style="fill:#fff"/><g style="clip-path:url(#clip-path)"><path d="M51.23,52.21,50,47.33a7.08,7.08,0,0,0-4.64-5l-9-3c-2.18-.9-3.18-4.42-3.39-5.75a8.52,8.52,0,0,0,3-5.5A1.67,1.67,0,0,1,36.25,27a1,1,0,0,0,.7-.61A15.19,15.19,0,0,0,38,21.94a1,1,0,0,0,0-.24,2.52,2.52,0,0,0-1-1.48v-5.4c0-3.27-1-4.62-2.05-5.4-.2-1.58-1.89-4.77-8.12-4.77A10.6,10.6,0,0,0,16.68,14.82v5.4a2.62,2.62,0,0,0-1,1.48,1,1,0,0,0,0,.24,15.51,15.51,0,0,0,1.09,4.45.85.85,0,0,0,.61.58c.12.06.33.36.33,1.08a8.5,8.5,0,0,0,3,5.51c-.22,1.33-1.21,4.84-3.33,5.73l-9,3a7.09,7.09,0,0,0-4.65,5L2.47,52.21a1,1,0,0,0,.74,1.24,1,1,0,0,0,.25,0H50.25a1,1,0,0,0,1-1A1.07,1.07,0,0,0,51.23,52.21Z" style="fill:#29abe2"/></g></g></g></svg>