<svg xmlns="http://www.w3.org/2000/svg" viewBox="0 0 745.89 270.5"><g id="レイヤー_2" data-name="レイヤー 2"><g id="Contents"><circle cx="369" cy="112" r="112" style="fill:#fff"/><path d="M391.25,147.28l9.6,20.38a23.29,23.29,0,0,1,2.22,9.92l-.51,5.07a9,9,0,0,1-8.91,8.07h-47.1a9,9,0,0,1-8.91-8.07l-.51-5.07a23.29,23.29,0,0,1,2.22-9.92l9.6-20.38a7.15,7.15,0,0,1,6.48-4.11h29.34A7.15,7.15,0,0,1,391.25,147.28Z" style="fill:#8d1c21;stroke:#8d1c21;stroke-linecap:round;stroke-linejoin:round;stroke-width:1.29227085760168px"/><path d="M376.37,137.05c-1.79,1.79-4.21,2.28-5.4,1.08s-.71-3.61,1.08-5.4,3.39-1.46,4.59-.26S378.16,135.26,376.37,137.05Z" style="fill:#fff;stroke:#8d1c21;stroke-linecap:round;stroke-linejoin:round;stroke-width:1.29227085760168px"/><path d="M363.83,137.05c1.79,1.79,4.21,2.28,5.4,1.08s.71-3.61-1.08-5.4-3.39-1.46-4.59-.26S362,135.26,363.83,137.05Z" style="fill:#fff;stroke:#8d1c21;stroke-linecap:round;stroke-linejoin:round;stroke-width:1.29227085760168px"/><path d="M397.76,161.22a2.77,2.77,0,0,1-2.51-1.6l-5.94-12.69a4.86,4.86,0,0,0-4.38-2.78H355.27a4.86,4.86,0,0,0-4.38,2.78L345,159.62a2.77,2.77,0,1,1-5-2.35l5.95-12.69a10.4,10.4,0,0,1,9.39-6h29.66a10.4,10.4,0,0,1,9.39,6l5.95,12.69a2.77,2.77,0,0,1-1.34,3.69A2.72,2.72,0,0,1,397.76,161.22Z" style="fill:#fff;stroke:#8d1c21;stroke-linecap:round;stroke-linejoin:round;stroke-width:1.29227085760168px"/><path d="M377.12,111V100.24a1.72,1.72,0,0,0-1.73-1.72H364.8a1.72,1.72,0,0,0-1.72,1.72V111a.88.88,0,0,1-.87.88h-6.64a1.29,1.29,0,0,0-.8,2.31L369,125.32a1.86,1.86,0,0,0,2.3,0l14.18-11.13a1.29,1.29,0,0,0-.8-2.31H378A.88.88,0,0,1,377.12,111Z" style="fill:#fff;stroke:#8d1c21;stroke-linecap:round;stroke-linejoin:round;stroke-width:1.29227085760168px"/><circle cx="412.26" cy="93.91" r="12.1" style="fill:#ffd964;stroke:#8d1c21;stroke-linecap:round;stroke-linejoin:round;stroke-width:1.29227085760168px"/><circle cx="412.26" cy="93.91" r="9.96" style="fill:#ffd964;stroke:#8d1c21;stroke-linecap:round;stroke-linejoin:round;stroke-width:0.923050612572626px"/><path d="M427.26,90.47a10.05,10.05,0,1,0,10,10A10.05,10.05,0,0,0,427.26,90.47Zm0,12.93a2.88,2.88,0,1,1,2.87-2.88A2.88,2.88,0,0,1,427.26,103.4Z" style="fill:#ffd964;stroke:#8d1c21;stroke-linecap:round;stroke-linejoin:round;stroke-width:1.29227085760168px"/><circle cx="427.26" cy="100.52" r="7.92" style="fill:none;stroke:#8d1c21;stroke-linecap:round;stroke-linejoin:round;stroke-width:0.923050612572626px"/><rect x="302.62" y="40.79" width="109.34" height="51.01" transform="translate(-2.42 117.85) rotate(-18.67)" style="fill:#fff;stroke:#8d1c21;stroke-linecap:round;stroke-linejoin:round;stroke-width:1.29227085760168px"/><polyline points="303.82 68.15 301.66 61.76 308.06 59.59" style="fill:none;stroke:#8d1c21;stroke-linecap:round;stroke-linejoin:round;stroke-width:1.29227085760168px"/><polyline points="400.93 35.34 398.77 28.95 392.37 31.11" style="fill:none;stroke:#8d1c21;stroke-linecap:round;stroke-linejoin:round;stroke-width:1.29227085760168px"/><polyline points="313.65 97.26 315.81 103.66 322.21 101.49" style="fill:none;stroke:#8d1c21;stroke-linecap:round;stroke-linejoin:round;stroke-width:1.29227085760168px"/><polyline points="410.76 64.45 412.93 70.84 406.53 73.01" style="fill:none;stroke:#8d1c21;stroke-linecap:round;stroke-linejoin:round;stroke-width:1.29227085760168px"/><path d="M389.8,32.73,311.08,59.32a8.88,8.88,0,0,1-5.56,11.25l3.4,10.09.37,1.09,4.24,12.55a8.89,8.89,0,0,1,11.25,5.57L403.5,73.28A8.88,8.88,0,0,1,409.07,62l-4.24-12.56-.37-1.09L401.05,38.3A8.89,8.89,0,0,1,389.8,32.73Z" style="fill:#8d1c21;stroke:#8d1c21;stroke-linecap:round;stroke-linejoin:round;stroke-width:1.29227085760168px"/><ellipse cx="357.29" cy="66.3" rx="18.01" ry="18.68" transform="translate(-2.42 117.85) rotate(-18.67)" style="fill:#fff;stroke:#8d1c21;stroke-linecap:round;stroke-linejoin:round;stroke-width:1.29227085760168px"/><path d="M361.52,64l3.18-1.07.92,2.74-4.24,1.43-.08,2,4.91-1.66.93,2.74-5,1.7,1.64,4.85-5.34,1.8-1.64-4.84-5,1.68-.93-2.74,4.91-1.66-1.25-1.51-4.24,1.44-.93-2.74L352.52,67l-7.6-9.07,5.48-1.85,7.1,10.27L356.58,54l5.48-1.85Z" style="fill:#8d1c21;stroke:#8d1c21;stroke-linecap:round;stroke-linejoin:round;stroke-width:0.36922024502905px"/><circle cx="626" cy="112" r="112" style="fill:#fff"/><path d="M651.27,43.13c-2.57-3.58-5.16-5.75-9.53-6.74-5.74-7.83-20.68-4.87-28.8,6.34-6.85,9.46.14,25.76.14,25.76h38.36S657.24,51.44,651.27,43.13Z" style="fill:#8d1c21;stroke:#8d1c21;stroke-linecap:round;stroke-linejoin:round;stroke-width:1.38953855656094px"/><path d="M650.58,63.05V62.4c-.45-9.58-6.74-17.87-18.63-17.87s-18.18,8.29-18.63,17.87c0,0,0,.63,0,.65-2.38-2.26-4.76-.4-4.76,2.62,0,2.62,2.56,6.79,6.82,6.11,1.13,3.92,3.68,7.14,8.14,9.58A2.81,2.81,0,0,1,625,83.84v8c0,1.94,3.13,3.5,7,3.5s7-1.56,7-3.5v-8a2.81,2.81,0,0,1,1.44-2.48c4.47-2.44,7-5.66,8.15-9.58,4.26.68,6.81-3.49,6.81-6.11C655.34,62.65,653,60.79,650.58,63.05Z" style="fill:#fff;stroke:#8d1c21;stroke-linecap:round;stroke-linejoin:round;stroke-width:1.38953855656094px"/><path d="M651.72,58.15a19.77,19.77,0,1,0-38.18,7.21,19.43,19.43,0,0,1-.26-3.91,16.3,16.3,0,0,1,1.05-4.75c4.84.14,10.64.95,15.41-2.07s6-7.85,9.52-8.5c5.35,7.57,11,8.29,11.35,15.32a18.07,18.07,0,0,1-.26,3.91A19.63,19.63,0,0,0,651.72,58.15Z" style="fill:#8d1c21;stroke:#8d1c21;stroke-linecap:round;stroke-linejoin:round;stroke-width:1.38953855656094px"/><path d="M628.55,75c.43.52,1.78.9,3.4.9s3-.38,3.39-.9" style="fill:none;stroke:#8d1c21;stroke-linecap:round;stroke-linejoin:round;stroke-width:0.992527540400673px"/><circle cx="624.31" cy="65.98" r="1.51" style="fill:#8d1c21"/><circle cx="639.59" cy="65.98" r="1.51" style="fill:#8d1c21"/><path d="M666.64,161l-5.08-42.68a31,31,0,0,0-7.67-17.07C648.94,95.62,640.46,87,640.46,87a25,25,0,0,1-17,0S615,95.62,610,101.24a31.07,31.07,0,0,0-7.68,17.07L597.25,161a7.92,7.92,0,0,0,7.86,8.85h53.68A7.91,7.91,0,0,0,666.64,161Z" style="fill:#fff;stroke:#8d1c21;stroke-linecap:round;stroke-linejoin:round;stroke-width:1.38953855656094px"/><path d="M632,88.51A21.56,21.56,0,0,1,623.44,87s-2,2-4.51,4.64l8.54,4.77Z" style="fill:#fff;stroke:#8d1c21;stroke-linecap:round;stroke-linejoin:round;stroke-width:1.38953855656094px"/><path d="M632,88.51A21.64,21.64,0,0,0,640.46,87s1.94,2,4.5,4.64l-8.53,4.77Z" style="fill:#fff;stroke:#8d1c21;stroke-linecap:round;stroke-linejoin:round;stroke-width:1.38953855656094px"/><line x1="610.52" y1="156.49" x2="622.39" y2="156.49" style="fill:none;stroke:#8d1c21;stroke-linecap:round;stroke-linejoin:round;stroke-width:1.38953855656094px"/><line x1="615.38" y1="136.58" x2="613.36" y2="156.49" style="fill:none;stroke:#8d1c21;stroke-linecap:round;stroke-linejoin:round;stroke-width:1.38953855656094px"/><path d="M628.4,169.84a3.62,3.62,0,0,0,3.27-1.87,7.13,7.13,0,0,0,.73-3.13c0-4.61-4.48-8.35-10-8.35s-10,3.74-10,8.35a7.13,7.13,0,0,0,.73,3.13,3.61,3.61,0,0,0,3.27,1.87Z" style="fill:none;stroke:#8d1c21;stroke-linecap:round;stroke-linejoin:round;stroke-width:1.38953855656094px"/><rect x="641.89" y="114.4" width="8.67" height="3.41" style="fill:#fff;stroke:#8d1c21;stroke-linecap:round;stroke-linejoin:round;stroke-width:1.38953855656094px"/><rect x="617.73" y="164.67" width="76.36" height="5.16" rx="1.05" style="fill:#8d1c21;stroke:#8d1c21;stroke-linecap:round;stroke-linejoin:round;stroke-width:1.38953855656094px"/><line x1="636.08" y1="166.29" x2="636.08" y2="168.61" style="fill:none;stroke:#fff;stroke-linecap:round;stroke-linejoin:round;stroke-width:0.794022032320539px"/><path d="M694.73,164.67h-56.5a1.54,1.54,0,0,1-1.62-1.62L639.47,126a1.9,1.9,0,0,1,1.92-1.66h56.49a1.54,1.54,0,0,1,1.63,1.62L696.64,163A1.89,1.89,0,0,1,694.73,164.67Z" style="fill:#8d1c21;stroke:#8d1c21;stroke-linecap:round;stroke-linejoin:round;stroke-width:1.38953855656094px"/><ellipse cx="671.45" cy="144.25" rx="5.46" ry="1.41" style="fill:#fff"/><rect x="545.26" y="164.54" width="41.38" height="5.3" style="fill:#fff;stroke:#8d1c21;stroke-linecap:round;stroke-linejoin:round;stroke-width:1.38953855656094px"/><rect x="545.26" y="159.24" width="41.38" height="5.3" style="fill:#fff;stroke:#8d1c21;stroke-linecap:round;stroke-linejoin:round;stroke-width:1.38953855656094px"/><rect x="545.26" y="153.95" width="41.38" height="5.3" style="fill:#fff;stroke:#8d1c21;stroke-linecap:round;stroke-linejoin:round;stroke-width:1.38953855656094px"/><rect x="545.26" y="148.65" width="41.38" height="5.3" style="fill:#fff;stroke:#8d1c21;stroke-linecap:round;stroke-linejoin:round;stroke-width:1.38953855656094px"/><rect x="545.26" y="143.35" width="41.38" height="5.3" style="fill:#fff;stroke:#8d1c21;stroke-linecap:round;stroke-linejoin:round;stroke-width:1.38953855656094px"/><rect x="545.26" y="138.05" width="41.38" height="5.3" style="fill:#fff;stroke:#8d1c21;stroke-linecap:round;stroke-linejoin:round;stroke-width:1.38953855656094px"/><rect x="545.26" y="132.76" width="41.38" height="5.3" style="fill:#fff;stroke:#8d1c21;stroke-linecap:round;stroke-linejoin:round;stroke-width:1.38953855656094px"/><rect x="545.26" y="127.46" width="41.38" height="5.3" style="fill:#fff;stroke:#8d1c21;stroke-linecap:round;stroke-linejoin:round;stroke-width:1.38953855656094px"/><rect x="562.64" y="135.16" width="41.38" height="41.38" transform="translate(-11.52 52.34) rotate(-5.09)" style="fill:#fff;stroke:#8d1c21;stroke-linecap:round;stroke-linejoin:round;stroke-width:1.38953855656094px"/><rect x="559.18" y="137.15" width="3.54" height="41.38" transform="translate(-11.79 50.36) rotate(-5.09)" style="fill:#8d1c21;stroke:#8d1c21;stroke-linecap:round;stroke-linejoin:round;stroke-width:1.38953855656094px"/><circle cx="583.33" cy="155.85" r="17.31" style="fill:#ffd964;stroke:#8d1c21;stroke-linecap:round;stroke-linejoin:round;stroke-width:1.38953855656094px"/><circle cx="583.33" cy="155.85" r="6.53" style="fill:#fff"/><circle cx="583.33" cy="155.85" r="2.2" style="fill:#fff;stroke:#8d1c21;stroke-linecap:round;stroke-linejoin:round;stroke-width:1.38953855656094px"/><circle cx="112" cy="112" r="112" style="fill:#fff"/><path d="M26,114v16.13a1.57,1.57,0,0,0,1.58,1.58h.83a1.57,1.57,0,0,0,1.58-1.58V128a1.59,1.59,0,0,1,1.59-1.59h0A1.59,1.59,0,0,1,33.11,128v20.73a1.58,1.58,0,0,0,1.58,1.58H47.76a1.59,1.59,0,0,0,1.59-1.58V114a1.59,1.59,0,0,0-1.59-1.58H27.53A1.58,1.58,0,0,0,26,114Z" style="fill:#8d1c21;stroke:#8d1c21;stroke-linecap:round;stroke-linejoin:round;stroke-width:1.10661979197951px"/><rect x="53.73" y="130.93" width="28.19" height="10.46" rx="1.95" style="fill:#8d1c21;stroke:#8d1c21;stroke-linecap:round;stroke-linejoin:round;stroke-width:1.10661979197951px"/><rect x="107.19" y="92.92" width="5.18" height="3.33" rx="1.12" style="fill:#8d1c21;stroke:#8d1c21;stroke-linecap:round;stroke-linejoin:round;stroke-width:1.10661979197951px"/><path d="M137.48,73V71.9a2.36,2.36,0,0,0-2.36-2.36h-6.63a2.36,2.36,0,0,0-2.36,2.36V85.22a6.93,6.93,0,0,1-2.56,5.37l-19.89,16.13a1.06,1.06,0,0,1-1.73-.83v-3.45a1.58,1.58,0,0,0-1.57-1.57h-1.8A1.58,1.58,0,0,0,97,102.44v7.11a2.86,2.86,0,0,1-2.87,2.87H55.92a2.2,2.2,0,0,0-2.19,2.2v9.58a2.19,2.19,0,0,0,2.19,2.19h27a2.38,2.38,0,0,1,2.37,2.37v10.43a2.2,2.2,0,0,0,2.2,2.2h9.73a2.2,2.2,0,0,0,2.19-2.2v-9.25a1.68,1.68,0,0,1,1.68-1.68h.39a1.68,1.68,0,0,1,1.68,1.68v.55a2.1,2.1,0,0,0,2.09,2.09h21.18a1.78,1.78,0,0,0,1.77-1.78h0a2.05,2.05,0,0,1,2.05-2.05h.45a1.33,1.33,0,0,0,1.33-1.32v-5.09a2,2,0,0,1,2-2h0a2,2,0,0,1,2,2v6.18a1.46,1.46,0,0,0,1.46,1.47h3.48a1.47,1.47,0,0,0,1.47-1.47V78a3.24,3.24,0,0,0-3.24-3.24h0A1.7,1.7,0,0,1,137.48,73Z" style="fill:#8d1c21;stroke:#8d1c21;stroke-linecap:round;stroke-linejoin:round;stroke-width:1.10661979197951px"/><path d="M152.13,37H130.47a4.34,4.34,0,0,0-4.34,4.35V62.86a1.75,1.75,0,0,0,1.74,1.75h4.4A1.75,1.75,0,0,0,134,62.86V61.34a2.66,2.66,0,0,1,2.65-2.66h15.46a4.34,4.34,0,0,0,4.34-4.34v-13A4.34,4.34,0,0,0,152.13,37Z" style="fill:#8d1c21;stroke:#8d1c21;stroke-linecap:round;stroke-linejoin:round;stroke-width:1.10661979197951px"/><polyline points="90.44 74.14 72.34 92.24 39.41 92.24" style="fill:none;stroke:#8d1c21;stroke-linecap:round;stroke-linejoin:round;stroke-width:1.10661979197951px"/><rect x="62.96" y="74.73" width="5.18" height="3.33" rx="1.12" style="fill:#8d1c21;stroke:#8d1c21;stroke-linecap:round;stroke-linejoin:round;stroke-width:1.10661979197951px"/><rect x="68.68" y="170.19" width="113.86" height="6.32" style="fill:#8d1c21;stroke:#8d1c21;stroke-linecap:round;stroke-linejoin:round;stroke-width:1.21426573478492px"/><circle cx="164.45" cy="176.99" r="6.81" style="fill:#8d1c21;stroke:#8d1c21;stroke-linecap:round;stroke-linejoin:round;stroke-width:1.21426573478492px"/><circle cx="164.45" cy="176.99" r="4.03" style="fill:#fff;stroke:#8d1c21;stroke-linecap:round;stroke-linejoin:round;stroke-width:1.21426573478492px"/><circle cx="147.25" cy="176.99" r="6.81" style="fill:#8d1c21;stroke:#8d1c21;stroke-linecap:round;stroke-linejoin:round;stroke-width:1.21426573478492px"/><circle cx="147.25" cy="176.99" r="4.03" style="fill:#fff;stroke:#8d1c21;stroke-linecap:round;stroke-linejoin:round;stroke-width:1.21426573478492px"/><circle cx="87.29" cy="176.99" r="6.81" style="fill:#8d1c21;stroke:#8d1c21;stroke-linecap:round;stroke-linejoin:round;stroke-width:1.21426573478492px"/><circle cx="87.29" cy="176.99" r="4.03" style="fill:#fff;stroke:#8d1c21;stroke-linecap:round;stroke-linejoin:round;stroke-width:1.21426573478492px"/><path d="M97.72,127.35H180a2.57,2.57,0,0,1,2.57,2.57v40.27a0,0,0,0,1,0,0H95.15a0,0,0,0,1,0,0V129.92A2.57,2.57,0,0,1,97.72,127.35Z" style="fill:#ffd964;stroke:#8d1c21;stroke-linecap:round;stroke-linejoin:round;stroke-width:1.21426573478492px"/><line x1="112.04" y1="141.44" x2="165.65" y2="141.44" style="fill:none;stroke:#8d1c21;stroke-linecap:round;stroke-linejoin:round;stroke-width:1.21426573478492px"/><line x1="112.04" y1="149.56" x2="165.65" y2="149.56" style="fill:none;stroke:#8d1c21;stroke-linecap:round;stroke-linejoin:round;stroke-width:1.21426573478492px"/><line x1="112.04" y1="157.69" x2="165.65" y2="157.69" style="fill:none;stroke:#8d1c21;stroke-linecap:round;stroke-linejoin:round;stroke-width:1.21426573478492px"/><path d="M95.15,170.19V139.3H76.34a2.09,2.09,0,0,0-2,1.4L68,159a4.79,4.79,0,0,0-.27,1.59v14.93a1,1,0,0,0,1,1H80.51a6.8,6.8,0,0,1,6.78-6.32Z" style="fill:#fff;stroke:#8d1c21;stroke-linecap:round;stroke-linejoin:round;stroke-width:1.21426573478492px"/><path d="M89,154.13v-8.32a1.57,1.57,0,0,0-1.57-1.57H77.59A1.71,1.71,0,0,0,76,145.39l-4.11,11.82a.86.86,0,0,0,1,1.12l15.28-2.79A1.57,1.57,0,0,0,89,154.13Z" style="fill:#fff;stroke:#8d1c21;stroke-linecap:round;stroke-linejoin:round;stroke-width:1.21426573478492px"/><path d="M68,157.47H67.1a.78.78,0,0,1-.77-.78v-4.94a.78.78,0,0,1,.77-.78H68Z" style="fill:#8d1c21;stroke:#8d1c21;stroke-linecap:round;stroke-linejoin:round;stroke-width:1.21426573478492px"/><path d="M172.09,87l-4.9,8.1h3.34v3.41h-5.4l-1.36,2.4h6.76v3.42h-6.76v8h-4.56v-8h-6.77V101h6.77l-1.37-2.4h-5.4V95.14h3.35l-4.9-8.1h5.47l5.13,8.89L166.62,87Z" style="fill:#8d1c21"/><path d="M176.12,92.35c0-13.74,7.5-20.88,15.48-20.88s15.48,7.14,15.48,20.94-7.5,20.88-15.48,20.88S176.12,106.14,176.12,92.35Zm7.8,0c0,10.44,4.26,14.22,7.68,14.22s7.68-3.78,7.68-14.22S195,78.19,191.6,78.19,183.92,82,183.92,92.35Z" style="fill:#8d1c21"/><path d="M69.2,231.15h9.24v2.67H57.17v-2.67H66.1v-3H59.17v-2.6H66.1V222.7H60.45v-2a32.12,32.12,0,0,1-2.78,1.73,10.84,10.84,0,0,0-1.87-2.4A27.32,27.32,0,0,0,66,211H69a26.41,26.41,0,0,0,10.7,8.75,14.42,14.42,0,0,0-2,2.67c-.9-.5-1.8-1-2.7-1.67v1.95H69.2v2.87h7v2.6h-7Zm4.87-11.07a30.49,30.49,0,0,1-6.45-6.2,28.91,28.91,0,0,1-6.25,6.2Z" style="fill:#ff4033"/><path d="M103.83,212.05v22.37h-3.18v-1.25H85.86v1.25h-3V212.05Zm-3.18,18.37V214.78H85.86v15.64Zm-.87-3.87V229h-13v-2.42h5v-3H87.73v-2.5h4.12v-2.35H87.11v-2.6H99.38v2.6H94.6v2.35h4.23v2.5H97.45a18.87,18.87,0,0,1,1.88,2.22l-1.3.73Zm-5.18,0h2.5a17.63,17.63,0,0,0-1.7-2.18l1.53-.77H94.6Z" style="fill:#ff4033"/><path d="M117.65,218.55a34.41,34.41,0,0,1-2.05,7.27,24.37,24.37,0,0,1,2.57,4.05l-2.37,2a23.1,23.1,0,0,0-1.7-3.08,16.74,16.74,0,0,1-5.12,5.4,13.22,13.22,0,0,0-2-2.32,13.88,13.88,0,0,0,5.32-5.68c-1.32-1.77-2.8-3.55-4.17-5.07l2.12-1.68c1.08,1.16,2.23,2.43,3.3,3.75a28.3,28.3,0,0,0,1.2-5.05Zm12.9.92h-2.68v11.25c0,1.68-.3,2.55-1.25,3a10,10,0,0,1-4.5.65,12,12,0,0,0-1-3.2c1.4.07,2.75.05,3.18.05s.6-.13.6-.53V219.47h-6.28v-1.79h-11v-2.75H112V211.1h2.85v3.83h4.62v1.7H125v-5.55h2.92v5.55h2.68Zm-9.75,2a19.79,19.79,0,0,1,2.77,5.27L121,228.05a20.79,20.79,0,0,0-2.58-5.45Z" style="fill:#ff4033"/><path d="M137.33,220.27c0,4-.37,10.2-2.62,14.1a13.58,13.58,0,0,0-2.58-1.67c2.05-3.58,2.23-8.83,2.23-12.43V214h8.9V211.1h3.1V214h9v2.82h-18Zm-.45,10.8a20.69,20.69,0,0,0,1.83-7.57l2.67.57c-.27,2.88-.72,6.18-1.85,8.18Zm11.15.23c.75,0,.9-.58,1-4a7.79,7.79,0,0,0,2.62,1.2c-.27,4.28-1,5.48-3.34,5.48h-2.78c-2.65,0-3.27-.88-3.27-3.65v-8.73h3v8.7c0,.9.1,1,.8,1Zm.28-8.58a29.09,29.09,0,0,0-5.88-3.89l2-2a33.4,33.4,0,0,1,6.05,3.65Zm4.37.13A30,30,0,0,1,156,231l-2.92,1.2a30.1,30.1,0,0,0-3.05-8.35Z" style="fill:#ff4033"/><path d="M163,230a2.6,2.6,0,0,1,5.2,0,2.6,2.6,0,0,1-5.2,0Zm.43-12.74-.1-3.73h4.57l-.12,3.73-.88,8.54h-2.57Z" style="fill:#ff4033"/><path d="M10.41,264.62c1,1.68,2.9,2.35,5.5,2.45,2.92.13,8.55.05,11.87-.2a15.92,15.92,0,0,0-.92,3c-3,.15-8,.2-11,.08s-5.12-.83-6.75-2.78c-1.1,1-2.2,1.95-3.57,3l-1.45-3.1a32.53,32.53,0,0,0,3.42-2.3V259.5H4.64v-2.73h5.77ZM8.69,253.4a19,19,0,0,0-4-4l2.2-1.8A19.93,19.93,0,0,1,11,251.43Zm12.59,5.77A8.75,8.75,0,0,0,27.36,264a10.58,10.58,0,0,0-1.88,2.5,10.24,10.24,0,0,1-6-5.15,11.76,11.76,0,0,1-6.08,5.1,9.22,9.22,0,0,0-2-2.15c3.8-1.4,5.25-3.28,5.8-5.08h-5.8V256.5h6.12v-2.4H12.26v-2.62h2.5a16.63,16.63,0,0,0-1.85-3.33l2.52-1.05a13,13,0,0,1,2.18,3.8l-1.33.58h5.58L20.58,251a24.86,24.86,0,0,0,2.08-3.95l3.05.92c-.8,1.28-1.65,2.53-2.38,3.48h3.13v2.62H20.51v2.4h6.77v2.67Z" style="fill:#ff4033"/><path d="M38.78,264.82a35.68,35.68,0,0,0-1.8-3.25v8.78H34.23v-8.83a25.38,25.38,0,0,1-2.88,6.15A17.46,17.46,0,0,0,30,264.6a23,23,0,0,0,3.3-6.48H30.45v-2.77h3.78v-8.17H37v8.17h3.7v2.77H37v.18c.72.72,3.1,3.52,3.62,4.22Zm-7.23-9.94a25,25,0,0,0-1.12-5.75l2.07-.55a25.32,25.32,0,0,1,1.28,5.72ZM41.13,249c-.65,2-1.38,4.38-2,5.83l-1.88-.53a42.35,42.35,0,0,0,1.38-5.85Zm9.69,14.65v6.75H48v-6.25l-7,1.25-.45-2.78L48,261.3V247.05h2.8V260.8l2.55-.48.45,2.78Zm-8.54-9.07a21.51,21.51,0,0,1,4.2,2.87L45,259.82a21.26,21.26,0,0,0-4.1-3.1Zm3.62-.9A19.72,19.72,0,0,0,42,250.43l1.42-2a18.82,18.82,0,0,1,4,3Z" style="fill:#ff4033"/><path d="M67.58,255.55a3.2,3.2,0,1,1-3.2,3.2A3.22,3.22,0,0,1,67.58,255.55Z" style="fill:#ff4033"/><path d="M104.65,262.77H94.78v4.08c0,1.77-.45,2.55-1.63,3a16.86,16.86,0,0,1-5.55.5,11.52,11.52,0,0,0-1.22-2.95c1.85.08,4,.08,4.5.08s.8-.2.8-.7v-4H81.8v-2.9h9.88V257H83.5V254.1h8.18v-2.92c-2.6.22-5.23.37-7.68.47a9.79,9.79,0,0,0-.75-2.62c6-.25,12.88-.93,17-2l2.15,2.47a58.54,58.54,0,0,1-7.59,1.33v3.27h8.39V257H94.78v2.92h9.87Z" style="fill:#ff4033"/><path d="M129.39,254.33a28.33,28.33,0,0,1-2.73,9.32,11.75,11.75,0,0,0,4.43,4.15,11.42,11.42,0,0,0-2.05,2.57,13.5,13.5,0,0,1-4.2-4,16.22,16.22,0,0,1-5.27,4.1,11.49,11.49,0,0,0-.95-1.7L117.49,270a22.15,22.15,0,0,0-2.6-1.88,15.28,15.28,0,0,1-6.15,2.38,6.93,6.93,0,0,0-1.17-2.48,13.36,13.36,0,0,0,4.75-1.32,15,15,0,0,0-1.4-.68l-.28.48-2.6-.8c.55-.88,1.18-2,1.8-3.2h-2.37v-2.4h3.62c.3-.63.6-1.23.85-1.78l.55.13V256a18,18,0,0,1-3.75,2.9,8.76,8.76,0,0,0-1.5-2.15,13.29,13.29,0,0,0,4.4-3.12h-3.9v-2.35h1.9a12.86,12.86,0,0,0-1.3-2.9l2.15-.9a10.59,10.59,0,0,1,1.5,3.1l-1.6.7h2.1v-4.2h2.73v4.2h2l-1.65-.73a23.55,23.55,0,0,0,1.68-3.17l2.5,1c-.78,1.07-1.55,2.12-2.15,2.9h2.37v2.35h-4.1c1.2.67,3,1.72,3.53,2.09l-1.58,2c-.55-.52-1.6-1.39-2.57-2.17v3h-1.6l1.07.23-.6,1.2h6a17,17,0,0,0-2-1.73c2.12-2.55,3.32-6.79,3.92-11.24l3,.4a41.28,41.28,0,0,1-.8,4.1h6.65v2.75Zm-17.25,9.44c.75.3,1.48.6,2.2,1a7.39,7.39,0,0,0,1-2.27h-2.42Zm6-1.32a10.14,10.14,0,0,1-1.32,3.55,24.37,24.37,0,0,1,2.07,1.32,12.22,12.22,0,0,0,4.4-3.77,26.65,26.65,0,0,1-1.7-4.93,15.86,15.86,0,0,1-1.15,1.8l-.35-.37v2.4Zm5.35-8.12A32.1,32.1,0,0,0,125,260.2a26.27,26.27,0,0,0,1.35-5.87Z" style="fill:#ff4033"/><path d="M141.65,264.82a33.4,33.4,0,0,0-1.8-3.25v8.78H137.1v-8.83a25.76,25.76,0,0,1-2.87,6.15,17.46,17.46,0,0,0-1.35-3.07,23.31,23.31,0,0,0,3.3-6.48h-2.85v-2.77h3.77v-8.17h2.75v8.17h3.7v2.77h-3.7v.18c.73.72,3.1,3.52,3.62,4.22Zm-7.22-9.94a24.49,24.49,0,0,0-1.13-5.75l2.08-.55a24.74,24.74,0,0,1,1.27,5.72ZM144,249c-.65,2-1.38,4.38-2,5.83l-1.88-.53a41,41,0,0,0,1.38-5.85Zm9.7,14.65v6.75h-2.8v-6.25l-7,1.25-.45-2.78,7.43-1.32V247.05h2.8V260.8l2.55-.48.45,2.78Zm-8.55-9.07a21.51,21.51,0,0,1,4.2,2.87l-1.5,2.37a21.26,21.26,0,0,0-4.1-3.1Zm3.62-.9a19.72,19.72,0,0,0-3.87-3.25l1.42-2a18.82,18.82,0,0,1,4,3Z" style="fill:#ff4033"/><path d="M162.7,253.7a17.22,17.22,0,0,1-1.48,1.3,30.26,30.26,0,0,0-2.42-1.95,15.35,15.35,0,0,0,5.17-6l2.9.85a13.75,13.75,0,0,1-1,1.75h15v2.62h-2.35v3.2h3.25v2.65h-3.25v3.17h2.9V264H159.72v-2.65h3v-3.17h-3.35V255.5h3.35Zm-3.6,15.6a12.42,12.42,0,0,0,2.8-4.8l2.87.7a13.61,13.61,0,0,1-2.85,5.25Zm6.22-13.8h1.8v-3.2h-1.8Zm0,5.82h1.8v-3.17h-1.8Zm3.83,3.73a33,33,0,0,1,.6,4.67l-2.9.43a31.27,31.27,0,0,0-.48-4.78Zm2.3-9.55v-3.2H169.6v3.2Zm-1.85,2.65v3.17h1.85v-3.17Zm4.52,6.8a27.13,27.13,0,0,1,1.45,4.65l-3,.57a26.8,26.8,0,0,0-1.28-4.75Zm1.7-12.65h-1.9v3.2h1.9Zm0,5.85h-1.9v3.17h1.9Zm3.3,6.25a34.23,34.23,0,0,1,3.15,5l-3.05,1a32.79,32.79,0,0,0-2.95-5.12Z" style="fill:#ff4033"/><path d="M193.24,264.82a33.4,33.4,0,0,0-1.8-3.25v8.78h-2.75v-8.83a25.76,25.76,0,0,1-2.87,6.15,17.46,17.46,0,0,0-1.35-3.07,23.31,23.31,0,0,0,3.3-6.48h-2.85v-2.77h3.77v-8.17h2.75v8.17h3.7v2.77h-3.7v.18c.73.72,3.1,3.52,3.62,4.22ZM186,254.88a24.49,24.49,0,0,0-1.13-5.75l2.08-.55a24.74,24.74,0,0,1,1.27,5.72Zm9.57-5.88c-.65,2-1.38,4.38-2,5.83l-1.88-.53a42.35,42.35,0,0,0,1.38-5.85Zm9.7,14.65v6.75h-2.8v-6.25l-7,1.25-.45-2.78,7.43-1.32V247.05h2.8V260.8l2.55-.48.45,2.78Zm-8.55-9.07a21.51,21.51,0,0,1,4.2,2.87l-1.5,2.37a21.26,21.26,0,0,0-4.1-3.1Zm3.62-.9a19.72,19.72,0,0,0-3.87-3.25l1.42-2a18.82,18.82,0,0,1,4,3Z" style="fill:#ff4033"/><path d="M214.71,266a2.6,2.6,0,0,1,5.2,0,2.6,2.6,0,0,1-5.2,0Zm.43-12.74-.1-3.73h4.57l-.12,3.73-.88,8.54H216Z" style="fill:#ff4033"/><path d="M309.71,222.36a14.91,14.91,0,0,1-3.15,5.87,13.86,13.86,0,0,0,4.4,1.85,12.14,12.14,0,0,0-1.75,2.33,13.92,13.92,0,0,1-4.65-2.33,16.38,16.38,0,0,1-4.25,2.33,11.18,11.18,0,0,0-1.33-2v2h-2.84v-2l-7.93.72-.22-2.55c.65-.05,1.4-.07,2.17-.15v-7.6h-2v-2.35h22.22v2.35H299V230a12.5,12.5,0,0,0,3.55-1.8,15.11,15.11,0,0,1-2.27-3.7l1.65-.45h-2.3v-2.27h7.77l.5-.1Zm-2.15-4.8H291.14v-7.67h16.42Zm-14.67,3.27v1h3.25v-1Zm0,4.13h3.25v-1.05h-3.25Zm0,3.27c1.05-.07,2.15-.15,3.25-.25v-1h-3.25Zm11.69-16.44H294v1h10.59Zm0,2.82H294v1h10.59ZM302.76,224a9.57,9.57,0,0,0,1.67,2.45,10.22,10.22,0,0,0,1.7-2.45Z" style="fill:#ff4033"/><path d="M322.55,229.11a41.6,41.6,0,0,0-2.52-3.68,14.17,14.17,0,0,1-4.28,7,10.23,10.23,0,0,0-2.05-2.1,13.31,13.31,0,0,0,4.3-9h-4.09v-2.75h4.24v-3.87h-.67a20.45,20.45,0,0,1-1.55,3.27,15.72,15.72,0,0,0-2.52-1.37,19.76,19.76,0,0,0,2.67-7.55l2.8.53c-.15.82-.35,1.65-.55,2.45h5.45v2.67H321v3.87h3.1v2.75H320.8c0,.33-.05.63-.1,1,1,1,3.2,3.68,3.75,4.3Zm14.45.1V232H322.73v-2.75Zm-.35-16.38H323.88v-2.74h12.77ZM335.87,223H324.8v-8.22h11.07Zm-9.37,6a20.2,20.2,0,0,0-1.12-4.85l2.52-.6a17.37,17.37,0,0,1,1.25,4.78ZM333,217.36h-5.45v3H333Zm-2.13,11.07a27.24,27.24,0,0,0,1.53-5.1l2.92.63c-.68,1.82-1.35,3.82-1.95,5Z" style="fill:#ff4033"/><path d="M348.17,223.06a28.16,28.16,0,0,1,3.82,6.85l-2.62,1.32a15,15,0,0,0-.85-2.2c-2.83.8-5.75,1.6-8,2.23l-.85-3c.5-.1,1.08-.23,1.68-.38V210.31H351v12.22h-6.85v4.65l3-.75c-.45-.77-.93-1.55-1.4-2.25Zm-4-10v2.07h4.1v-2.07Zm4.1,6.72v-2.05h-4.1v2.05Zm13.79,5.58c0,1.4-.22,2.37-1.12,2.92a7.21,7.21,0,0,1-3.7.63,10.87,10.87,0,0,0-1-3.25c1,.07,2,.05,2.35.05s.42-.13.42-.45v-12h-3.55v19.15h-3V210.26h9.64Z" style="fill:#ff4033"/><path d="M384.79,210.59v21.49h-3.2v-1.57H370.5v1.62h-3.08V210.59Zm-14.29,3V219h11.09v-5.38Zm11.09,13.93v-5.6H370.5v5.6Z" style="fill:#ff4033"/><path d="M402.57,210.49c0,4.72.67,13.84,9.87,19.27a15.82,15.82,0,0,0-2.4,2.6,21.17,21.17,0,0,1-9.2-12.33c-1.87,5.6-4.87,9.75-9.22,12.35A24.08,24.08,0,0,0,388.9,230c5.19-2.63,8.17-7.45,9.54-14l1.53.28a25.67,25.67,0,0,1-.35-2.7h-5.7v-3Z" style="fill:#ff4033"/><path d="M433.93,225.21c-.95,1.37-1.92,2.9-2.8,3.95h5.65v2.55H415.64v-2.55h4.87a17.17,17.17,0,0,0-2.07-4l2.27-1h-3.82v-2.55h7.6v-2.48h-4.6v-1.22a31.31,31.31,0,0,1-3.73,2.32,11.61,11.61,0,0,0-1.85-2.4,26.61,26.61,0,0,0,10.1-8.82h3.08a25.42,25.42,0,0,0,10.67,8.52,13.87,13.87,0,0,0-2,2.68,31.65,31.65,0,0,1-3.8-2.38v1.3h-4.77v2.48h7.7v2.55h-7.7v5h2.72l-1.62-.68a26.26,26.26,0,0,0,2.37-4.32Zm-13.07-1.05a16.59,16.59,0,0,1,2.3,4.12l-2.05.88h3.38v-5Zm9.82-7.63a26.66,26.66,0,0,1-4.6-4.62,25.84,25.84,0,0,1-4.42,4.62Z" style="fill:#ff4033"/><path d="M444.81,228a2.6,2.6,0,0,1,5.2,0,2.6,2.6,0,0,1-5.2,0Zm.43-12.75-.1-3.72h4.57l-.13,3.72-.87,8.55h-2.57Z" style="fill:#ff4033"/><path d="M526.85,212.71a20.08,20.08,0,0,1-5.78,5.8,36,36,0,0,0,8.85,2.55,13.85,13.85,0,0,0-1.92,2.77c-.8-.15-1.55-.35-2.33-.55v9.1h-3.2v-.82h-9.05v.92h-3v-9.22c-.95.27-1.9.52-2.85.72a11.7,11.7,0,0,0-1.45-2.67,41.05,41.05,0,0,0,9.2-2.85,25.1,25.1,0,0,1-3-2.63,24.8,24.8,0,0,1-3.5,2.65,17.73,17.73,0,0,0-2.2-2.22,20.17,20.17,0,0,0,7.95-7.42l2.82,1c-.35.55-.7,1.13-1.1,1.68h7.93l.5-.15ZM525,223.11a32.16,32.16,0,0,1-6.9-2.85,37.68,37.68,0,0,1-7.15,2.85Zm-2.53,5.82v-3.12h-9.05v3.12Zm-8.2-14.9A20.2,20.2,0,0,0,518.1,217a18.77,18.77,0,0,0,3.82-2.95Z" style="fill:#ff4033"/><path d="M539.69,219.81l-1.82,2.8c-1.43-1-4-2.68-5.7-3.58l1.8-2.75A66.62,66.62,0,0,1,539.69,219.81Zm2,5.7a25.37,25.37,0,0,0,9.73-9.38l1.92,3.4a30.08,30.08,0,0,1-9.92,9,31.29,31.29,0,0,1-8.35,3.08l-1.87-3.28A26.62,26.62,0,0,0,541.69,225.51Zm1.83-11.35-1.85,2.75c-1.4-1-4-2.65-5.65-3.58l1.8-2.74C539.47,211.49,542.22,213.26,543.52,214.16Zm7.45.77-2.18.93a21.86,21.86,0,0,0-2.2-3.92l2.08-.88A39.44,39.44,0,0,1,551,214.93Zm3.5-1.35-2.13.95a23.77,23.77,0,0,0-2.35-3.79l2.13-.88A33.69,33.69,0,0,1,554.47,213.58Z" style="fill:#ff4033"/><path d="M568.49,224.68a21.93,21.93,0,0,0,3.68-4.5l-5.78,1.2c1,3.43,2,7.28,2.4,8.58.15.45.48,1.55.68,2l-3.4.82a15.26,15.26,0,0,0-.45-2.17c-.38-1.35-1.4-5.23-2.3-8.65-2.1.45-3.92.82-4.67,1l-.78-3c.8-.08,1.48-.15,2.3-.3.35-.05,1.25-.2,2.4-.43-.25-1-.48-1.77-.65-2.32a9.57,9.57,0,0,0-.7-1.78l3.35-.8c.1.6.25,1.25.4,1.9l.67,2.43c3.18-.6,6.68-1.28,7.65-1.5a5.19,5.19,0,0,0,1.28-.4l2,1.42a39.55,39.55,0,0,1-5.33,7.83Z" style="fill:#ff4033"/><path d="M588.45,224.63a23.73,23.73,0,0,0,9.1-9.72l2,3.52a26.54,26.54,0,0,1-9.25,9.25,27,27,0,0,1-9.27,3.53l-2.1-3.3A25.77,25.77,0,0,0,588.45,224.63Zm0-8.1-2.55,2.63a51.16,51.16,0,0,0-6.25-5.4l2.35-2.5A52.92,52.92,0,0,1,588.45,216.53Z" style="fill:#ff4033"/><path d="M600.11,229.33a11.8,11.8,0,0,0,4.25-6c.7-2.15.72-6.88.72-9.9a9.12,9.12,0,0,0-.22-2.27h3.67a14.8,14.8,0,0,0-.18,2.25c0,2.94-.07,8.22-.74,10.74a14.47,14.47,0,0,1-4.45,7.18Zm11.57.38a9.6,9.6,0,0,0,.2-1.85V213.29a11.43,11.43,0,0,0-.2-2.15h3.72a13.51,13.51,0,0,0-.17,2.17v13.07a15.8,15.8,0,0,0,6.17-5.27l1.93,2.75a27.51,27.51,0,0,1-8.48,6.82,7.13,7.13,0,0,0-1.1.75Z" style="fill:#ff4033"/><path d="M631.65,211.19a21.32,21.32,0,0,0-.6,2.19,61.19,61.19,0,0,0-1.2,9.08,13,13,0,0,0,.1,1.6c.35-.88.75-1.7,1.1-2.5l1.55,1.2a59.45,59.45,0,0,0-1.77,6.07,6.73,6.73,0,0,0-.15,1.15c0,.28,0,.68.05,1l-2.85.2a31.6,31.6,0,0,1-1-8.1,67.71,67.71,0,0,1,1-9.8,18.51,18.51,0,0,0,.25-2.42Zm5.8,12.22a8.14,8.14,0,0,0-.3,2.07c0,1.1,1,1.75,3.45,1.75a28.57,28.57,0,0,0,6.2-.65l.07,3.35a34.29,34.29,0,0,1-6.39.5c-4.28,0-6.3-1.55-6.3-4.07a15.24,15.24,0,0,1,.42-3.23Zm8.65-10.6V216a69.72,69.72,0,0,1-10.62,0l0-3.2A50.52,50.52,0,0,0,646.1,212.81Z" style="fill:#ff4033"/><path d="M656.4,220.33c.66.7,2.83,3.65,3.3,4.38l-1.87,2.3a31.37,31.37,0,0,0-1.47-3.15v8.5h-2.65v-7.2a21,21,0,0,1-2.18,4.55,24.1,24.1,0,0,0-1.37-3.08,23.57,23.57,0,0,0,3.17-6.5h-2.75v-2.77h3.13v-1.08l-2,.48a23.78,23.78,0,0,0-1.12-5.62l1.92-.5a22.24,22.24,0,0,1,1.23,5.37v-6.8h2.65v6.37a40.66,40.66,0,0,0,1.09-5.07l2.35.5c-.6,2-1.27,4.27-1.87,5.72l-1.57-.45v1.1h2.37v2.75h-2.37v.25Zm17.28-3.22v2.15H659.4v-2.15H665V216H660.7v-2H665v-1H660.1v-2.13H665v-1.77h2.8v1.77h5.33V213h-5.33v1h4.78v2h-4.78v1.1Zm-1.43,12.65c0,1.22-.25,1.87-1.1,2.25a9.06,9.06,0,0,1-3.6.4,9.37,9.37,0,0,0-.77-2.35,22.09,22.09,0,0,0,2.27,0c.33,0,.43-.1.43-.37v-1.05h-6v3.8h-2.72v-12.2h11.52Zm-8.8-7.4v1.22h6v-1.22Zm6,4.37v-1.22h-6v1.22Z" style="fill:#ff4033"/><path d="M682.49,226.76c1,1.67,2.7,2.37,5.25,2.47,3,.13,8.9.05,12.33-.22a12.45,12.45,0,0,0-.93,2.9c-3.07.15-8.37.2-11.42.07s-5-.85-6.48-2.77c-1.14,1-2.32,1.95-3.72,3l-1.37-3a34.88,34.88,0,0,0,3.5-2.27v-5.45h-3.18v-2.73h6ZM681,215.58a20.25,20.25,0,0,0-4.17-4.07l2-1.9a21.21,21.21,0,0,1,4.34,3.85Zm6.4,12.63h-2.8V215.33h5.6c-1.13-.52-2.33-1-3.35-1.42l1.92-1.6c.88.33,1.93.73,3,1.17a22.32,22.32,0,0,0,2-1.32h-8.9v-2.25h11.48l.57-.15,1.78,1.43a29,29,0,0,1-4.45,3.37c.55.27,1.07.52,1.5.77h3v10.3c0,1.2-.22,1.83-1,2.23a7.63,7.63,0,0,1-3.38.42,8.25,8.25,0,0,0-.72-2.32c.77,0,1.65,0,1.9,0s.37-.12.37-.37v-1.15h-2.95v3.65h-2.65v-3.65h-2.87Zm0-10.73v1.35h2.87v-1.35Zm2.87,4.83v-1.4h-2.87v1.4Zm5.6-4.83h-2.95v1.35h2.95Zm0,4.83v-1.4h-2.95v1.4Z" style="fill:#ff4033"/><path d="M708.68,210.51a23.75,23.75,0,0,0-.32,3.3c-.13,2.65-.31,8.2-.31,11.27,0,2.5,1.5,3.3,3.4,3.3,4.1,0,6.7-2.35,8.48-5l2.25,2.78a12.88,12.88,0,0,1-10.75,5.65c-4,0-6.67-1.78-6.67-6,0-3.33.25-9.83.25-11.95a15.29,15.29,0,0,0-.33-3.35Z" style="fill:#ff4033"/><path d="M738.32,216c-1.48.32-3.15.6-4.8.8-.23,1.07-.48,2.17-.75,3.17a80.88,80.88,0,0,1-3.92,11.45l-3.48-1.15a54.36,54.36,0,0,0,4.28-11.15c.17-.65.34-1.35.52-2.05-.57,0-1.12.05-1.62.05-1.2,0-2.13-.05-3-.1l-.08-3.1a24.45,24.45,0,0,0,3.13.2c.72,0,1.45,0,2.19-.07.11-.55.18-1,.23-1.43a12.37,12.37,0,0,0,.1-2.49l3.77.3c-.17.67-.4,1.77-.52,2.32l-.2.95c1.4-.22,2.8-.5,4.15-.83Zm-.5,8.12a8.6,8.6,0,0,0-.35,2.08c0,1.07.62,1.87,3.27,1.87a28.21,28.21,0,0,0,5.15-.5l-.12,3.18a40.63,40.63,0,0,1-5,.35c-4.18,0-6.3-1.45-6.3-3.95a16.9,16.9,0,0,1,.42-3.3Zm-1.45-6.22c1.37-.13,3.15-.25,4.75-.25a43,43,0,0,1,4.35.22l-.08,3a35.68,35.68,0,0,0-4.25-.3,36.37,36.37,0,0,0-4.77.27Z" style="fill:#ff4033"/><path d="M541.6,262.63h-5.37v2.93c0,1.42-.3,2.1-1.35,2.5a14.88,14.88,0,0,1-4.52.4,10.12,10.12,0,0,0-.93-2.6c1.32.05,2.9.05,3.32.05s.55-.13.55-.45v-2.83h-8.12a17,17,0,0,1,3.3,3l-2.37,1.75a18.38,18.38,0,0,0-3.58-3.5l1.8-1.28H519v-2.5H533.3v-1.32H521.38v-8.5h7.35v-1.12h-9.17v-2.43h9.17v-1.65h2.9v1.65H541v2.43h-9.37v1.12h7.67v8.5h-3.07v1.32h5.37Zm-17.47-9h4.6v-1.28h-4.6Zm0,3.17h4.6v-1.27h-4.6Zm7.5-4.45v1.28h4.77v-1.28Zm4.77,3.18h-4.77v1.27h4.77Z" style="fill:#ff4033"/><path d="M554.61,255.71H548v12.72h-2.95V246.09h9.53ZM548,248.49v1.29h3.8v-1.29Zm3.8,4.84v-1.42H548v1.42Zm14.3,11.5c0,1.7-.35,2.58-1.45,3s-2.73.55-5.15.55a10.94,10.94,0,0,0-1-3.05c1.57.1,3.42.07,3.95.07s.7-.17.7-.65v-9h-6.77v-9.69h9.77Zm-7-16.34v1.29h4v-1.29Zm4,4.89v-1.47h-4v1.47Z" style="fill:#ff4033"/><path d="M575.67,249l3.65.75c-.22.73-.5,2-.6,2.5a62.72,62.72,0,0,1-2.12,7.53,34.87,34.87,0,0,1-3.7,7.15l-3.5-1.48a29.94,29.94,0,0,0,3.9-6.95A36.16,36.16,0,0,0,575.67,249Zm6.35.75,3.33-1.07a89.73,89.73,0,0,1,3.67,8.2c.9,2.25,2.22,6.25,2.92,8.72l-3.69,1.2a77.46,77.46,0,0,0-2.6-8.82A69.74,69.74,0,0,0,582,249.73Zm8,0-2,.88a29.59,29.59,0,0,0-2-3.47l2-.83C588.62,247.24,589.5,248.81,590,249.73Zm3-1.15-2,.88a25.79,25.79,0,0,0-2-3.45l2-.82C591.59,246.14,592.52,247.71,593,248.58Z" style="fill:#ff4033"/><path d="M607.78,264.08a17.76,17.76,0,0,0,.22,3.28h-3.94a30.69,30.69,0,0,0,.17-3.28v-8.2a48.73,48.73,0,0,1-8.6,3.4l-1.8-3a38.34,38.34,0,0,0,11.37-4.52,26.43,26.43,0,0,0,6.53-5.65l2.67,2.43a41.54,41.54,0,0,1-6.62,5.37Z" style="fill:#ff4033"/><path d="M629.41,258.08a25.36,25.36,0,0,0,4.65-5.57c-.75.12-4.08.8-7.55,1.52,1.15,4.23,2.45,9,3,10.63.17.52.55,1.72.8,2.35l-3.73.85a24.52,24.52,0,0,0-.55-2.53c-.44-1.5-1.72-6.42-2.84-10.6-2.55.53-4.75,1-5.65,1.2l-.88-3.37c1-.1,1.85-.2,2.83-.33l2.9-.52c-.35-1.2-.63-2.2-.8-2.82a9.89,9.89,0,0,0-.85-2.2l3.67-.83a18.93,18.93,0,0,0,.48,2.23c.22.8.52,1.82.85,3,3.84-.75,8.24-1.6,9.44-1.87a5.37,5.37,0,0,0,1.48-.45l2.3,1.65a48.26,48.26,0,0,1-6.28,9.2Z" style="fill:#ff4033"/><path d="M641.49,254.68c.9.08,2.73.15,4,.15h13.42c1.15,0,2.27-.1,2.92-.15v3.93c-.6,0-1.87-.13-2.92-.13H645.52c-1.43,0-3.1,0-4,.13Z" style="fill:#ff4033"/><path d="M687.2,248.49v6h-3v-3.45H668.58v3.45h-2.85v-6h3.37a13.72,13.72,0,0,0-1.4-2.18l2.7-1.1a12.31,12.31,0,0,1,1.83,2.68l-1.35.6h4v-3.43h3.07v3.43h3.93l-1.4-.5a17.62,17.62,0,0,0,1.8-2.73l3.2,1c-.73.88-1.43,1.65-2.05,2.28Zm-1.45,16.14c0,1.38-.28,2.1-1.28,2.55a11.09,11.09,0,0,1-4.12.43,10.46,10.46,0,0,0-1-2.7c1.12,0,2.45,0,2.8,0s.5-.1.5-.38v-2.42h-4.5v6.3h-3.07v-6.3h-4.7v5.17h-3v-7.82h7.73V258h-5.35v-5.75h13.29V258H678.2v1.5h7.55Zm-13.12-8.72h7.42v-1.55h-7.42Z" style="fill:#ff4033"/><path d="M689.75,266.46c.9-1.28,1.22-3.4,1.32-5.5l1.65.3c-.15,2.3-.4,4.62-1.45,6.05Zm11.39-9.13s0,.68,0,1c-.25,6-.55,8.38-1.15,9.13a2.11,2.11,0,0,1-1.5.87,12.49,12.49,0,0,1-2.25.08,6.2,6.2,0,0,0-.62-2.33,13.33,13.33,0,0,0,1.57.08.72.72,0,0,0,.68-.3,5.49,5.49,0,0,0,.5-2.25l-.78.3a13.26,13.26,0,0,0-1.15-3.23l1.2-.42a17.21,17.21,0,0,1,.85,2c0-.75.1-1.62.15-2.65h-7.4V246h9.55v2.4h-3v1.44h2.65v2.25h-2.65v1.48h2.65v2.22h-2.65v1.55Zm-6.9,3.7a24.55,24.55,0,0,1,.28,4.58l-1.38.17a29.48,29.48,0,0,0-.17-4.62Zm-.55-12.64v1.44h1.6v-1.44Zm1.6,3.69h-1.6v1.48h1.6Zm-1.6,5.25h1.6v-1.55h-1.6Zm2.25,3.43a19.58,19.58,0,0,1,.85,4l-1.32.25a20.21,20.21,0,0,0-.78-4Zm17.62,4.1v2.72H700.77v-2.72h5.07v-5.33h-3.75v-2.7h3.75v-4.4h-4.37v-2.74h6a25.11,25.11,0,0,0-4.4-2.63l1.78-2.12a22.92,22.92,0,0,1,5.62,3.32l-1.12,1.43h3.72v2.74h-4.35v4.4h3.9v2.7h-3.9v5.33Z" style="fill:#ff4033"/><path d="M720.59,264a2.6,2.6,0,0,1,5.2,0,2.6,2.6,0,0,1-5.2,0Zm.42-12.75-.1-3.72h4.58l-.13,3.72-.87,8.55h-2.58Z" style="fill:#ff4033"/></g></g></svg>