<svg xmlns="http://www.w3.org/2000/svg" viewBox="0 0 45.48 13.94"><g id="レイヤー_2" data-name="レイヤー 2"><g id="Contents"><path d="M3.08.3V11H7.22v2.6H0V.3Z" style="fill:#ff4033"/><path d="M16,.3V13.64H12.89V.3Z" style="fill:#ff4033"/><path d="M29.73,3.56a3.25,3.25,0,0,0-2.24-1,1.67,1.67,0,0,0-1.3.46,1.19,1.19,0,0,0-.34.84.94.94,0,0,0,.3.74,5.36,5.36,0,0,0,1.68.76l1,.38a5.35,5.35,0,0,1,1.82,1,3.33,3.33,0,0,1,1,2.48,4.78,4.78,0,0,1-1.18,3.3,5.17,5.17,0,0,1-3.78,1.36A5.65,5.65,0,0,1,24,13.38a8.48,8.48,0,0,1-2-1.46l1.6-2.2a8.17,8.17,0,0,0,1.24,1,3.1,3.1,0,0,0,1.68.48,2.13,2.13,0,0,0,1.4-.46,1.38,1.38,0,0,0,.48-1.08,1.18,1.18,0,0,0-.46-1A6.52,6.52,0,0,0,26.45,8l-1.1-.38a4.49,4.49,0,0,1-1.86-1.06,3.28,3.28,0,0,1-.8-2.32,4.1,4.1,0,0,1,1.16-3A4.3,4.3,0,0,1,27.15,0a6.45,6.45,0,0,1,4,1.32Z" style="fill:#ff4033"/><path d="M42.58,2.9V13.64H39.5V2.9H36.6V.3h8.88V2.9Z" style="fill:#ff4033"/></g></g></svg>