<svg xmlns="http://www.w3.org/2000/svg" viewBox="0 0 66.77 13.94"><g id="レイヤー_2" data-name="レイヤー 2"><g id="Contents"><path d="M0,13.64V.3H2.68L9.92,8.9V.3H13V13.64H10.32L3.08,5v8.64Z" style="fill:#ff4033"/><path d="M27.58,2.9H23.12V5.48h4.24v2.6H23.12v3h4.46v2.6H20V.3h7.54Z" style="fill:#ff4033"/><path d="M36.11.3,39,9.14,41.79.3h2.13l2.84,8.84L49.6.3h3.2L48.26,13.64h-2.6l-2.8-8.1-2.81,8.1H37.46L32.91.3Z" style="fill:#ff4033"/><path d="M64.87,3.56a3.27,3.27,0,0,0-2.25-1,1.68,1.68,0,0,0-1.3.46A1.19,1.19,0,0,0,61,3.9a.94.94,0,0,0,.3.74A5.36,5.36,0,0,0,63,5.4l1,.38a5.39,5.39,0,0,1,1.83,1,3.33,3.33,0,0,1,1,2.48,4.74,4.74,0,0,1-1.19,3.3,5.16,5.16,0,0,1-3.78,1.36,5.65,5.65,0,0,1-2.64-.56,8.48,8.48,0,0,1-2-1.46l1.6-2.2a8.17,8.17,0,0,0,1.24,1,3.1,3.1,0,0,0,1.68.48,2.13,2.13,0,0,0,1.4-.46,1.38,1.38,0,0,0,.48-1.08,1.18,1.18,0,0,0-.46-1A6.34,6.34,0,0,0,61.58,8l-1.1-.38a4.49,4.49,0,0,1-1.86-1.06,3.28,3.28,0,0,1-.8-2.32,4.1,4.1,0,0,1,1.16-3A4.3,4.3,0,0,1,62.29,0a6.45,6.45,0,0,1,4,1.32Z" style="fill:#ff4033"/></g></g></svg>