<svg xmlns="http://www.w3.org/2000/svg" viewBox="0 0 62.23 62.23"><g id="レイヤー_2" data-name="レイヤー 2"><g id="Contents"><circle cx="31.11" cy="31.11" r="31.11" style="fill:#ff4033"/><path d="M39.66,45.11H19.77l7.8-8.51a60.78,60.78,0,0,0,4.25-5.3,8.82,8.82,0,0,0,1.56-4.41,3.63,3.63,0,0,0-1-2.57A3.51,3.51,0,0,0,30,23.58a3.05,3.05,0,0,0-2.37.93,5.25,5.25,0,0,0-1.1,3.2h-6A11.13,11.13,0,0,1,23.2,21.2c1.25-1.33,3.47-2.69,7.17-2.69A9.23,9.23,0,0,1,37.12,21a8.65,8.65,0,0,1,2.42,6.24,9.25,9.25,0,0,1-1.95,5.73,33.92,33.92,0,0,1-4.17,4.48L30.69,40h9Z" style="fill:#fff"/></g></g></svg>