<svg xmlns="http://www.w3.org/2000/svg" viewBox="0 0 62.23 62.23"><g id="レイヤー_2" data-name="レイヤー 2"><g id="Contents"><circle cx="31.11" cy="31.11" r="31.11" style="fill:#ff4033"/><path d="M21.58,26.89A10.5,10.5,0,0,1,24.16,21a8.85,8.85,0,0,1,6.59-2.45c3.2,0,5.5,1,6.83,2.3a7.11,7.11,0,0,1,2,5.3,5.65,5.65,0,0,1-1.05,3.55,4.87,4.87,0,0,1-1.95,1.64,6.44,6.44,0,0,1,3,2.11,7.39,7.39,0,0,1,1.2,4.09,8.09,8.09,0,0,1-2.61,5.93,9.5,9.5,0,0,1-6.86,2.26c-2.54,0-5.31-.39-7.61-2.69a10.94,10.94,0,0,1-2.88-6.44h6A5,5,0,0,0,28,39.53a4.07,4.07,0,0,0,2.89,1,3.89,3.89,0,0,0,2.61-.89,3.77,3.77,0,0,0,1-2.66,3.22,3.22,0,0,0-1.13-2.49,5.27,5.27,0,0,0-3.2-.82h-.46V29.58h.35a4.46,4.46,0,0,0,2.61-.74,3,3,0,0,0,1-2.34,2.86,2.86,0,0,0-.85-2.1,3.6,3.6,0,0,0-4.57.08,4.13,4.13,0,0,0-.93,2.41Z" style="fill:#fff"/></g></g></svg>