<svg xmlns="http://www.w3.org/2000/svg" viewBox="0 0 45 45"><g id="レイヤー_2" data-name="レイヤー 2"><g id="Contents"><circle cx="22.5" cy="22.5" r="22.5" style="fill:#ff4033"/><path d="M27.52,17.48H21.17L20.67,20a9,9,0,0,1,1.55-.14A6.56,6.56,0,0,1,27,21.68a6.23,6.23,0,0,1,1.72,4.54,6.64,6.64,0,0,1-1.92,4.85,7.57,7.57,0,0,1-5.69,2A9.41,9.41,0,0,1,14.86,31l1-4a9,9,0,0,0,1.81,1.55,5.12,5.12,0,0,0,2.85.82,4.48,4.48,0,0,0,2.68-.76,2.94,2.94,0,0,0,1.1-2.37,2.8,2.8,0,0,0-1-2.2,4.53,4.53,0,0,0-3.13-1,8,8,0,0,0-3.84,1l1.92-10.18h9.25Z" style="fill:#fff"/></g></g></svg>