<svg xmlns="http://www.w3.org/2000/svg" viewBox="0 0 45 45"><g id="レイヤー_2" data-name="レイヤー 2"><g id="Contents"><circle cx="22.5" cy="22.5" r="22.5" style="fill:#ff4033"/><path d="M26.39,13.87l-5,6.17a5.81,5.81,0,0,1,2-.31,6.2,6.2,0,0,1,4.65,1.81,6,6,0,0,1,1.64,4.34,7.54,7.54,0,0,1-1.78,5.05A7.57,7.57,0,0,1,22.13,33,7.79,7.79,0,0,1,16,30.84a6.34,6.34,0,0,1-1.63-4.56c0-3,1.41-5.11,3-7.22l4.32-5.67ZM24.25,28.64a3.31,3.31,0,0,0,1-2.48,3,3,0,0,0-1-2.31A3.33,3.33,0,0,0,22,23.06a3.05,3.05,0,0,0-3.24,3.22,3,3,0,0,0,1,2.34,3.3,3.3,0,0,0,2.28.87A3.25,3.25,0,0,0,24.25,28.64Z" style="fill:#fff"/></g></g></svg>