<svg xmlns="http://www.w3.org/2000/svg" viewBox="0 0 45 45"><g id="レイヤー_2" data-name="レイヤー 2"><g id="Contents"><circle cx="22.5" cy="22.5" r="22.5" style="fill:#ff4033"/><path d="M16.92,31.46a5.31,5.31,0,0,1-1.81-4.08,4.52,4.52,0,0,1,1.27-3.22,5.66,5.66,0,0,1,2.34-1.41A5,5,0,0,1,17,21.59a4,4,0,0,1-1.16-3,4.77,4.77,0,0,1,1.39-3.5,6.47,6.47,0,0,1,4.87-1.72,6.46,6.46,0,0,1,4.83,1.72,4.76,4.76,0,0,1,1.38,3.5,4,4,0,0,1-1.16,3,5,5,0,0,1-1.72,1.16,5.66,5.66,0,0,1,2.34,1.41A4.48,4.48,0,0,1,29,27.38a5.34,5.34,0,0,1-1.8,4.08C25.57,33,23.82,33,22.05,33A6.91,6.91,0,0,1,16.92,31.46Zm3.32-6.28A2.8,2.8,0,0,0,19.51,27a2.66,2.66,0,0,0,.73,1.89,2.85,2.85,0,0,0,3.67,0A2.68,2.68,0,0,0,24.64,27a2.49,2.49,0,0,0-.73-1.83A2.64,2.64,0,0,0,22,24.5,2.55,2.55,0,0,0,20.24,25.18Zm.17-8a2.2,2.2,0,0,0,0,3.22,2.51,2.51,0,0,0,1.67.62,2.29,2.29,0,0,0,1.63-.62,2.08,2.08,0,0,0,.71-1.61,2.16,2.16,0,0,0-.71-1.63,2.49,2.49,0,0,0-1.63-.6A2.42,2.42,0,0,0,20.41,17.22Z" style="fill:#fff"/></g></g></svg>