<svg xmlns="http://www.w3.org/2000/svg" viewBox="0 0 45 45"><g id="レイヤー_2" data-name="レイヤー 2"><g id="Contents"><circle cx="22.5" cy="22.5" r="22.5" style="fill:#ff4033"/><path d="M17.7,32.56l5-6.14a6.66,6.66,0,0,1-1.89.28A6.66,6.66,0,0,1,16,25a6.18,6.18,0,0,1-1.63-4.54,6.87,6.87,0,0,1,1.83-4.91,8,8,0,0,1,5.89-2.11,8,8,0,0,1,5.64,1.89A6.36,6.36,0,0,1,29.69,20a9.65,9.65,0,0,1-.85,3.84,20.72,20.72,0,0,1-2.2,3.5L22.36,33Zm2.15-14.77a3.09,3.09,0,0,0-1,2.37,3.07,3.07,0,0,0,1,2.42,3.65,3.65,0,0,0,4.57,0,3.23,3.23,0,0,0,1-2.48,3,3,0,0,0-1-2.28,3.46,3.46,0,0,0-4.54,0Z" style="fill:#fff"/></g></g></svg>