<svg xmlns="http://www.w3.org/2000/svg" viewBox="0 0 65.37 13.94"><g id="レイヤー_2" data-name="レイヤー 2"><g id="Contents"><path d="M4.7.3A5,5,0,0,1,8.2,1.4,4.1,4.1,0,0,1,9.5,4.64,4.29,4.29,0,0,1,8.36,7.78,4.55,4.55,0,0,1,5,9H3.08v4.68H0V.3ZM3.08,6.44h1.1a2.36,2.36,0,0,0,1.66-.5,1.86,1.86,0,0,0,.5-1.32,1.76,1.76,0,0,0-.5-1.3,2.4,2.4,0,0,0-1.72-.5h-1Z" style="fill:#ff4033"/><path d="M20,.3a4.77,4.77,0,0,1,3.4,1.16,4,4,0,0,1,1.16,3,3.65,3.65,0,0,1-1,2.72,4.2,4.2,0,0,1-1.86,1l4.1,5.46H22l-3.6-5.26v5.26H15.35V.3Zm-1.6,6.06h.7A2.53,2.53,0,0,0,21,5.78a1.8,1.8,0,0,0,.5-1.3,1.62,1.62,0,0,0-.62-1.36,3,3,0,0,0-1.7-.42h-.72Z" style="fill:#ff4033"/><path d="M34.53.3V13.64H31.45V.3Z" style="fill:#ff4033"/><path d="M51.14,13.22a6.2,6.2,0,0,1-2.94.72A7.15,7.15,0,0,1,43,12a7,7,0,0,1-2.08-5.06,7,7,0,0,1,2.08-5,7.08,7.08,0,0,1,5-1.92,7.94,7.94,0,0,1,3.2.74V4.3A4.23,4.23,0,0,0,48,2.88a3.74,3.74,0,0,0-2.72,1A4.27,4.27,0,0,0,44,7,4,4,0,0,0,45.2,9.94a4,4,0,0,0,2.88,1.12,4.21,4.21,0,0,0,3.06-1.38Z" style="fill:#ff4033"/><path d="M65.37,2.9H60.91V5.48h4.24v2.6H60.91v3h4.46v2.6H57.83V.3h7.54Z" style="fill:#ff4033"/></g></g></svg>