<svg xmlns="http://www.w3.org/2000/svg" viewBox="0 0 96.18 13.94"><g id="レイヤー_2" data-name="レイヤー 2"><g id="Contents"><path d="M4.68.3a4.77,4.77,0,0,1,3.4,1.16,4,4,0,0,1,1.16,3,3.65,3.65,0,0,1-1,2.72,4.2,4.2,0,0,1-1.86,1l4.1,5.46H6.68L3.08,8.38v5.26H0V.3ZM3.08,6.36h.7a2.53,2.53,0,0,0,1.84-.58,1.8,1.8,0,0,0,.5-1.3A1.62,1.62,0,0,0,5.5,3.12,3,3,0,0,0,3.8,2.7H3.08Z" style="fill:#ff4033"/><path d="M23.61,2.9H19.15V5.48h4.24v2.6H19.15v3h4.46v2.6H16.07V.3h7.54Z" style="fill:#ff4033"/><path d="M38.19,11.12h-5l-1,2.52h-3.2L34.31.3h2.82l5.26,13.34h-3.2Zm-.84-2.36L35.71,4.28,34.05,8.76Z" style="fill:#ff4033"/><path d="M54.92,3.56a3.23,3.23,0,0,0-2.24-1,1.68,1.68,0,0,0-1.3.46A1.19,1.19,0,0,0,51,3.9a.94.94,0,0,0,.3.74A5.48,5.48,0,0,0,53,5.4l1,.38a5.39,5.39,0,0,1,1.83,1,3.33,3.33,0,0,1,1,2.48,4.78,4.78,0,0,1-1.18,3.3,5.18,5.18,0,0,1-3.79,1.36,5.65,5.65,0,0,1-2.64-.56,8.48,8.48,0,0,1-2-1.46l1.6-2.2a8.17,8.17,0,0,0,1.24,1,3.1,3.1,0,0,0,1.68.48,2.11,2.11,0,0,0,1.4-.46,1.39,1.39,0,0,0,.49-1.08,1.18,1.18,0,0,0-.46-1A6.76,6.76,0,0,0,51.64,8l-1.1-.38a4.49,4.49,0,0,1-1.86-1.06,3.28,3.28,0,0,1-.8-2.32,4.1,4.1,0,0,1,1.16-3A4.3,4.3,0,0,1,52.34,0a6.47,6.47,0,0,1,4,1.32Z" style="fill:#ff4033"/><path d="M74.77,1.94a6.94,6.94,0,0,1,2.08,5,6.9,6.9,0,0,1-2.08,5,7.12,7.12,0,0,1-5.16,2,7.34,7.34,0,0,1-5.2-2,6.81,6.81,0,0,1-2.08-5A7.45,7.45,0,0,1,64.39,2a7.88,7.88,0,0,1,10.38,0Zm-8.1,2a4.09,4.09,0,0,0-1.18,3,4,4,0,0,0,1.22,3,3.92,3.92,0,0,0,2.86,1.1,4,4,0,0,0,3-1.14,4,4,0,0,0,1.16-3,4.2,4.2,0,0,0-1.16-3,4.28,4.28,0,0,0-2.94-1.14A4.09,4.09,0,0,0,66.67,4Z" style="fill:#ff4033"/><path d="M83.17,13.64V.3h2.69L93.1,8.9V.3h3.08V13.64H93.5L86.26,5v8.64Z" style="fill:#ff4033"/></g></g></svg>