<svg xmlns="http://www.w3.org/2000/svg" viewBox="0 0 129 49"><g id="レイヤー_2" data-name="レイヤー 2"><g id="Contents"><rect x="0.5" y="0.5" width="128" height="48" style="fill:#fff;stroke:#ff4033;stroke-miterlimit:10"/><path d="M39.84,22.42a3.25,3.25,0,0,0-2.24-1,1.7,1.7,0,0,0-1.31.46,1.23,1.23,0,0,0-.33.84.9.9,0,0,0,.3.74,5.36,5.36,0,0,0,1.68.76l1,.38a5.35,5.35,0,0,1,1.82,1,3.33,3.33,0,0,1,1,2.48,4.78,4.78,0,0,1-1.18,3.3,5.17,5.17,0,0,1-3.78,1.36,5.67,5.67,0,0,1-2.65-.56,8.7,8.7,0,0,1-2-1.46l1.6-2.2a8.69,8.69,0,0,0,1.24,1,3.16,3.16,0,0,0,1.69.48,2.13,2.13,0,0,0,1.4-.46,1.38,1.38,0,0,0,.48-1.08,1.18,1.18,0,0,0-.46-1,6.4,6.4,0,0,0-1.57-.74l-1.09-.38a4.52,4.52,0,0,1-1.87-1.06,3.28,3.28,0,0,1-.8-2.32,4.07,4.07,0,0,1,1.17-3,4.28,4.28,0,0,1,3.3-1.22,6.45,6.45,0,0,1,4,1.32Z" style="fill:#ff4033"/><path d="M52.69,21.76V32.5H49.61V21.76h-2.9v-2.6h8.88v2.6Z" style="fill:#ff4033"/><path d="M68.71,21.76H64.25v2.58h4.24v2.6H64.25v3h4.46v2.6H61.17V19.16h7.54Z" style="fill:#ff4033"/><path d="M80.14,19.16a5,5,0,0,1,3.5,1.1,4.1,4.1,0,0,1,1.3,3.24,4.29,4.29,0,0,1-1.14,3.14,4.55,4.55,0,0,1-3.4,1.18H78.52V32.5H75.44V19.16ZM78.52,25.3h1.1a2.36,2.36,0,0,0,1.66-.5,1.86,1.86,0,0,0,.5-1.32,1.76,1.76,0,0,0-.5-1.3,2.4,2.4,0,0,0-1.72-.5h-1Z" style="fill:#ff4033"/><path d="M90.41,23.16a5.36,5.36,0,0,1,1.32-3,4.52,4.52,0,0,1,3.38-1.26,4.87,4.87,0,0,1,3.5,1.18,3.65,3.65,0,0,1,1,2.72,2.9,2.9,0,0,1-.54,1.82,2.48,2.48,0,0,1-1,.84,3.28,3.28,0,0,1,1.52,1.08,3.76,3.76,0,0,1,.62,2.1,4.14,4.14,0,0,1-1.34,3,4.88,4.88,0,0,1-3.52,1.16,5.15,5.15,0,0,1-3.9-1.38A5.62,5.62,0,0,1,90,28.14h3.08a2.55,2.55,0,0,0,.64,1.5,2.08,2.08,0,0,0,1.48.54,2,2,0,0,0,1.34-.46,1.92,1.92,0,0,0,.54-1.36,1.65,1.65,0,0,0-.58-1.28,2.69,2.69,0,0,0-1.64-.42h-.24V24.54h.18a2.32,2.32,0,0,0,1.34-.38,1.56,1.56,0,0,0,.5-1.2,1.45,1.45,0,0,0-.44-1.08,1.84,1.84,0,0,0-2.34,0,2.12,2.12,0,0,0-.48,1.24Z" style="fill:#ff4033"/></g></g></svg>