<svg xmlns="http://www.w3.org/2000/svg" viewBox="0 0 129 49"><g id="レイヤー_2" data-name="レイヤー 2"><g id="Contents"><rect x="0.5" y="0.5" width="128" height="48" style="fill:#fff;stroke:#ff4033;stroke-miterlimit:10"/><path d="M40.17,22.42a3.27,3.27,0,0,0-2.25-1,1.67,1.67,0,0,0-1.3.46,1.19,1.19,0,0,0-.33.84.93.93,0,0,0,.29.74,5.45,5.45,0,0,0,1.69.76l1,.38a5.35,5.35,0,0,1,1.82,1,3.33,3.33,0,0,1,1,2.48,4.78,4.78,0,0,1-1.18,3.3,5.18,5.18,0,0,1-3.78,1.36,5.67,5.67,0,0,1-2.65-.56,8.48,8.48,0,0,1-2-1.46l1.6-2.2a8.17,8.17,0,0,0,1.24,1,3.13,3.13,0,0,0,1.69.48,2.16,2.16,0,0,0,1.4-.46,1.38,1.38,0,0,0,.48-1.08,1.2,1.2,0,0,0-.46-1,6.76,6.76,0,0,0-1.57-.74l-1.09-.38a4.46,4.46,0,0,1-1.87-1.06,3.28,3.28,0,0,1-.8-2.32,4.1,4.1,0,0,1,1.16-3,4.3,4.3,0,0,1,3.3-1.22,6.45,6.45,0,0,1,4,1.32Z" style="fill:#ff4033"/><path d="M53,21.76V32.5H49.94V21.76H47v-2.6h8.88v2.6Z" style="fill:#ff4033"/><path d="M69,21.76H64.58v2.58h4.24v2.6H64.58v3H69v2.6H61.5V19.16H69Z" style="fill:#ff4033"/><path d="M80.47,19.16a5,5,0,0,1,3.5,1.1,4.1,4.1,0,0,1,1.3,3.24,4.29,4.29,0,0,1-1.14,3.14,4.55,4.55,0,0,1-3.4,1.18H78.85V32.5H75.77V19.16ZM78.85,25.3H80a2.36,2.36,0,0,0,1.66-.5,1.86,1.86,0,0,0,.5-1.32,1.76,1.76,0,0,0-.5-1.3,2.4,2.4,0,0,0-1.72-.5h-1Z" style="fill:#ff4033"/><path d="M99,27.54h1.6V30H99V32.5h-3V30H89.55V28.22l5.89-9.06H99Zm-3,0V22.36l-3.29,5.18Z" style="fill:#ff4033"/></g></g></svg>