<svg xmlns="http://www.w3.org/2000/svg" viewBox="0 0 129 49"><g id="レイヤー_2" data-name="レイヤー 2"><g id="Contents"><rect x="0.5" y="0.5" width="128" height="48" style="fill:#fff;stroke:#ff4033;stroke-miterlimit:10"/><path d="M40.35,22.42a3.25,3.25,0,0,0-2.24-1,1.67,1.67,0,0,0-1.3.46,1.19,1.19,0,0,0-.34.84.94.94,0,0,0,.3.74,5.36,5.36,0,0,0,1.68.76l1,.38a5.35,5.35,0,0,1,1.82,1,3.33,3.33,0,0,1,1,2.48,4.78,4.78,0,0,1-1.18,3.3,5.17,5.17,0,0,1-3.78,1.36,5.65,5.65,0,0,1-2.64-.56,8.48,8.48,0,0,1-2-1.46l1.6-2.2a8.17,8.17,0,0,0,1.24,1,3.1,3.1,0,0,0,1.68.48,2.13,2.13,0,0,0,1.4-.46,1.38,1.38,0,0,0,.48-1.08,1.18,1.18,0,0,0-.46-1,6.52,6.52,0,0,0-1.56-.74L36,26.46a4.49,4.49,0,0,1-1.86-1.06,3.28,3.28,0,0,1-.8-2.32,4.1,4.1,0,0,1,1.16-3,4.3,4.3,0,0,1,3.3-1.22,6.45,6.45,0,0,1,4,1.32Z" style="fill:#ff4033"/><path d="M53.2,21.76V32.5H50.12V21.76h-2.9v-2.6H56.1v2.6Z" style="fill:#ff4033"/><path d="M69.22,21.76H64.76v2.58H69v2.6H64.76v3h4.46v2.6H61.68V19.16h7.54Z" style="fill:#ff4033"/><path d="M80.65,19.16a5,5,0,0,1,3.5,1.1,4.12,4.12,0,0,1,1.31,3.24,4.29,4.29,0,0,1-1.15,3.14,4.55,4.55,0,0,1-3.4,1.18H79V32.5H76V19.16ZM79,25.3h1.1a2.36,2.36,0,0,0,1.66-.5,1.86,1.86,0,0,0,.5-1.32,1.76,1.76,0,0,0-.5-1.3,2.4,2.4,0,0,0-1.72-.5H79Z" style="fill:#ff4033"/><path d="M93.61,21.76h-1.9v-2.6h5V32.5H93.61Z" style="fill:#ff4033"/></g></g></svg>