<svg xmlns="http://www.w3.org/2000/svg" viewBox="0 0 129 49"><g id="レイヤー_2" data-name="レイヤー 2"><g id="Contents"><rect x="0.5" y="0.5" width="128" height="48" style="fill:#fff;stroke:#ff4033;stroke-miterlimit:10"/><path d="M39.83,22.42a3.27,3.27,0,0,0-2.25-1,1.65,1.65,0,0,0-1.29.46,1.15,1.15,0,0,0-.34.84.9.9,0,0,0,.3.74,5.25,5.25,0,0,0,1.68.76l1,.38a5.35,5.35,0,0,1,1.82,1,3.33,3.33,0,0,1,1,2.48,4.78,4.78,0,0,1-1.18,3.3,5.18,5.18,0,0,1-3.78,1.36,5.67,5.67,0,0,1-2.65-.56,8.48,8.48,0,0,1-2-1.46l1.6-2.2a8.17,8.17,0,0,0,1.24,1,3.13,3.13,0,0,0,1.69.48,2.16,2.16,0,0,0,1.4-.46,1.38,1.38,0,0,0,.48-1.08,1.2,1.2,0,0,0-.46-1,6.58,6.58,0,0,0-1.57-.74l-1.09-.38a4.46,4.46,0,0,1-1.87-1.06,3.28,3.28,0,0,1-.8-2.32,4.1,4.1,0,0,1,1.16-3,4.3,4.3,0,0,1,3.31-1.22,6.45,6.45,0,0,1,4,1.32Z" style="fill:#ff4033"/><path d="M52.68,21.76V32.5H49.6V21.76H46.7v-2.6h8.88v2.6Z" style="fill:#ff4033"/><path d="M68.7,21.76H64.24v2.58h4.24v2.6H64.24v3H68.7v2.6H61.16V19.16H68.7Z" style="fill:#ff4033"/><path d="M80.13,19.16a5,5,0,0,1,3.5,1.1,4.1,4.1,0,0,1,1.3,3.24,4.29,4.29,0,0,1-1.14,3.14,4.55,4.55,0,0,1-3.4,1.18H78.51V32.5H75.43V19.16ZM78.51,25.3h1.1a2.36,2.36,0,0,0,1.66-.5,1.86,1.86,0,0,0,.5-1.32,1.76,1.76,0,0,0-.5-1.3,2.4,2.4,0,0,0-1.72-.5h-1Z" style="fill:#ff4033"/><path d="M100.2,32.5H90l4-4.36a30.84,30.84,0,0,0,2.18-2.72,4.5,4.5,0,0,0,.8-2.26,1.88,1.88,0,0,0-.52-1.32,1.82,1.82,0,0,0-1.22-.38,1.57,1.57,0,0,0-1.22.48,2.71,2.71,0,0,0-.56,1.64H90.38a5.73,5.73,0,0,1,1.38-3.34,4.83,4.83,0,0,1,3.68-1.38,4.75,4.75,0,0,1,3.46,1.26,4.46,4.46,0,0,1,1.24,3.2,4.75,4.75,0,0,1-1,2.94A17.19,17.19,0,0,1,97,28.56L95.6,29.9h4.6Z" style="fill:#ff4033"/></g></g></svg>