<svg xmlns="http://www.w3.org/2000/svg" viewBox="0 0 314.99 70.19"><g id="レイヤー_2" data-name="レイヤー 2"><g id="Contents"><g style="opacity:0.2"><path d="M28.61,69.06,6.54,36.88h-2V69.06H0V.92H9.81c5.21,0,9.91.41,14.4,3.47,5.31,3.68,7.05,9.3,7.05,14.61,0,6.74-3,13.69-11.44,16.55a26,26,0,0,1-8.38,1.33L33.71,69.06ZM4.5,32.79H11c9.71,0,15.53-5.1,15.53-13.89,0-6.84-3.37-10.42-6-11.85-2.86-1.64-7.76-2-10.42-2H4.5Z" style="fill:#fff"/><path d="M98.56,5H70.37V29.73H98v4.09H70.37V65H98.56v4.09H65.87V.92H98.56Z" style="fill:#fff"/><path d="M134.32.92v42.6c0,6.44.3,10.63,2.86,14.71,4,6.44,11.44,7.87,15.83,7.87s11.85-1.43,15.84-7.87c2.55-4.08,2.86-8.27,2.86-14.71V.92h4.49v42.6c0,7.46-.41,12.36-3.88,17.47-5.11,7.46-13.18,9.2-19.31,9.2s-14.2-1.74-19.31-9.2c-3.47-5.11-3.88-10-3.88-17.47V.92Z" style="fill:#fff"/><path d="M242.56,12.46a14.55,14.55,0,0,0-13.38-8.37c-8.07,0-12.67,5.82-12.67,12.66,0,7.36,5.11,9.81,12,13.18s10.11,4.7,13.58,7.15c3,2.05,7.26,5.62,7.26,13.18,0,11.45-9.61,19.93-21.25,19.93-8.79,0-13.28-4.19-15.84-7.16a22.42,22.42,0,0,1-4.39-7.45l3.88-1.84a23.77,23.77,0,0,0,3.68,6.54,16.38,16.38,0,0,0,12.77,5.82c9.19,0,16.45-6.74,16.45-15.73,0-3.68-1.43-7.56-6.64-10.73-1.94-1.13-5.93-3.17-11.55-5.93-6.74-3.27-10.11-5.1-12.46-9A14.64,14.64,0,0,1,211.81,17c0-7.87,5.32-17,17.47-17a18.25,18.25,0,0,1,16.55,9.71Z" style="fill:#fff"/><path d="M315,5H286.8V29.73h27.58v4.09H286.8V65H315v4.09H282.3V.92H315Z" style="fill:#fff"/></g></g></g></svg>