<svg xmlns="http://www.w3.org/2000/svg" viewBox="0 0 295.33 29.24"><g id="レイヤー_2" data-name="レイヤー 2"><g id="Contents"><path d="M25.83,6.8a15.31,15.31,0,0,0-1.14,1.51,29.39,29.39,0,0,1-7,8l-3-2.42A17.42,17.42,0,0,0,20,8.46H4.81c-1.22,0-2.19.09-3.56.21V4.61a23.87,23.87,0,0,0,3.56.29H20.54a14.9,14.9,0,0,0,2.95-.26ZM13.92,10.74c0,7.24-.15,13.19-8.12,17.45L2.42,25.42a11.51,11.51,0,0,0,3.06-1.61c3.71-2.56,4.41-5.66,4.41-10.45a16.78,16.78,0,0,0-.2-2.62Z" style="fill:#fff"/><path d="M28.6,21c1.14.09,2.51.21,3.65.21H49A28.67,28.67,0,0,0,52.21,21v4.47A30.76,30.76,0,0,0,49,25.3H32.25c-1.14,0-2.57.09-3.65.18ZM31.05,6.74a33.32,33.32,0,0,0,3.42.17H46.55a32.24,32.24,0,0,0,3.24-.17V11c-.85,0-2.22-.12-3.24-.12h-12c-1.11,0-2.46.06-3.45.12Z" style="fill:#fff"/><path d="M79.12,5.13a23.32,23.32,0,0,0-1.2,2.6A41.67,41.67,0,0,1,74,15.67a76.11,76.11,0,0,1,7,6.42l-3,3.36A58.34,58.34,0,0,0,71.47,19a36.68,36.68,0,0,1-10.86,9l-3.36-3a31.9,31.9,0,0,0,11.09-8.61,74.18,74.18,0,0,0-7.82-5.52l2.51-3c2.34,1.46,5.34,3.5,7.71,5.25A31.67,31.67,0,0,0,74,6.24a22.45,22.45,0,0,0,.7-2.68Z" style="fill:#fff"/><path d="M103.92,7.56l2.48,1.51a13.35,13.35,0,0,0-1,2.08,29.45,29.45,0,0,1-5.1,9.75,27.29,27.29,0,0,1-11.77,8.26l-3.44-3.1c5.95-1.78,9.19-4.32,11.76-7.24A20.59,20.59,0,0,0,101,10.88H92.79A32,32,0,0,1,85.44,18L82.17,15.5a25,25,0,0,0,9.11-9.37,13,13,0,0,0,1.31-3.07l4.29,1.4c-.7,1-1.46,2.34-1.81,3L95,7.58h5.87a9,9,0,0,0,2.54-.35l.2.12a32.86,32.86,0,0,0-2.13-3.76l2.31-.94a43.87,43.87,0,0,1,2.31,4Zm3.29-6.22a42.74,42.74,0,0,1,2.37,4l-2.34,1a27.92,27.92,0,0,0-2.33-4Z" style="fill:#fff"/><path d="M118.26,17.39l-3.56,1.35A60,60,0,0,0,112,12l3.5-1.25C116.27,12.23,117.68,15.76,118.26,17.39Zm14.83-6.07c-.35.94-.53,1.55-.7,2.13a23.54,23.54,0,0,1-4,8.55,22.77,22.77,0,0,1-9.78,7.24l-3.07-3.12a19.65,19.65,0,0,0,9.7-6.1A19.69,19.69,0,0,0,129,10Zm-8.38,4.26-3.5,1.23a48.72,48.72,0,0,0-2.37-6.48l3.48-1.14C122.87,10.45,124.3,14.24,124.71,15.58Z" style="fill:#fff"/><path d="M157.9,7.47a12.93,12.93,0,0,0-1,1.84,43.33,43.33,0,0,1-4.59,8,83.14,83.14,0,0,1,8.15,8.34l-3.33,2.92a65,65,0,0,0-7.36-8.26,38.31,38.31,0,0,1-11,8.18l-3-3.16a32.72,32.72,0,0,0,12-8.37,22.47,22.47,0,0,0,4.35-7.16h-9.9c-1.22,0-2.83.18-3.44.21V5.86a31.78,31.78,0,0,0,3.44.21H152.5a10.78,10.78,0,0,0,3-.35l.35.26c-.49-.93-1.08-2-1.6-2.74l2.3-1a43.66,43.66,0,0,1,2.34,4l-1.66.7Zm2.39-1.26a35.58,35.58,0,0,0-2.36-4l2.3-1a40.22,40.22,0,0,1,2.37,4Z" style="fill:#fff"/><path d="M191.55,4.26v3H166V4.26h10.8V1.81h3.53V4.26Zm-.94,21.16c0,1.61-.32,2.54-1.46,3.07s-2.62.55-4.73.55a9.18,9.18,0,0,0-.67-2.34h-7.53V28h-3V20.17h11.15v5.66c1,0,1.89,0,2.22,0s.55-.12.55-.47V18.85H170.59V29.1H167.2V16h23.41ZM186.76,8.31v6.43H170.82V8.31Zm-3.53,2.31h-9.11V12.4h9.11Zm-2,11.85h-5.05v1.9h5.05Z" style="fill:#fff"/><path d="M203,2.89a51.85,51.85,0,0,1-2.63,5.75V29.07H197.1V13.83A22,22,0,0,1,195.32,16a26.87,26.87,0,0,0-1.78-3.5,30.3,30.3,0,0,0,6.33-10.6Zm12.81,4.9v3.65h4.93V28.28h-3.32V26.79H205.86v1.67h-3.21v-17h4.7V7.79h-5V4.7h18.54V7.79Zm-9.95,16h1.81V14.44h-1.81Zm4.72-9.37v9.37h2V14.44Zm2-6.65h-1.93v3.65h1.93Zm4.88,6.65h-2v9.37h2Z" style="fill:#fff"/><path d="M242.82,24.22c3.09,1,6.45,2.28,8.49,3.19l-3.76,1.72a61.19,61.19,0,0,0-8.21-3.39l2.37-1.52h-8.15l2.54,1.14a36.27,36.27,0,0,1-9.31,3.85,22.76,22.76,0,0,0-2.57-2.53,35.37,35.37,0,0,0,8.12-2.46h-4.5V11.41h19.94V24.22Zm6.51-14H226.27V3h23.06ZM233,5.63h-3.5v2H233ZM231.35,15h12.78V13.6H231.35Zm0,3.5h12.78V17.07H231.35Zm0,3.5h12.78V20.57H231.35Zm8.05-16.4h-3.53v2h3.53Zm6.57,0h-3.68v2H246Z" style="fill:#fff"/><path d="M280.38,6c-.61,6.36-2,11.38-4.2,15.29A16,16,0,0,0,281.46,26a13.22,13.22,0,0,0-2.39,2.86,18.2,18.2,0,0,1-5-4.46,19.8,19.8,0,0,1-5.2,4.46,13.47,13.47,0,0,0-1.92-2.54V29.1h-3.36V24.43c-3.36.58-6.77,1.11-9.46,1.52l-.67-3.48c.79-.09,1.69-.17,2.69-.29V6.68h-2V3.47h14.65V5.54h8.73l.59-.09Zm-21,.67V9.45h4.15V6.68Zm0,8.82h4.15V12.58h-4.15Zm0,6.27c1.35-.17,2.75-.38,4.15-.55V18.59h-4.15Zm7.51,4.12A15.94,15.94,0,0,0,272,21.25,41.31,41.31,0,0,1,268,9.69L271.36,9a35.36,35.36,0,0,0,2.69,8.64A33.19,33.19,0,0,0,276.56,9H268V6.68h-1Z" style="fill:#fff"/><path d="M289.25,24a3,3,0,0,1,6.08,0,3,3,0,0,1-6.08,0Zm.5-14.89-.12-4.35H295l-.14,4.35-1,10h-3Z" style="fill:#fff"/><path d="M24.58,5.55a15.31,15.31,0,0,0-1.14,1.51,29.27,29.27,0,0,1-7,8l-3-2.42a17.42,17.42,0,0,0,5.37-5.43H3.56c-1.23,0-2.19.09-3.56.2V3.36a23.76,23.76,0,0,0,3.56.29H19.29a14.9,14.9,0,0,0,2.95-.26ZM12.67,9.49c0,7.24-.15,13.19-8.12,17.45L1.17,24.17a11.51,11.51,0,0,0,3.06-1.61C7.94,20,8.64,16.9,8.64,12.11a16.78,16.78,0,0,0-.2-2.62Z" style="fill:#ff4033"/><path d="M27.35,19.76c1.14.09,2.51.21,3.65.21H47.75A28.83,28.83,0,0,0,51,19.76v4.47a30.76,30.76,0,0,0-3.21-.18H31c-1.14,0-2.57.09-3.65.18ZM29.8,5.49c1.05.11,2.42.17,3.42.17H45.3a32.24,32.24,0,0,0,3.24-.17V9.72c-.85,0-2.22-.12-3.24-.12h-12c-1.11,0-2.46.06-3.45.12Z" style="fill:#ff4033"/><path d="M77.87,3.88a22.51,22.51,0,0,0-1.2,2.6,42,42,0,0,1-3.94,7.94,74.64,74.64,0,0,1,6.94,6.42l-3,3.36a58.33,58.33,0,0,0-6.45-6.42,36.68,36.68,0,0,1-10.86,9l-3.36-3a31.9,31.9,0,0,0,11.09-8.61,74.18,74.18,0,0,0-7.82-5.52l2.51-3c2.34,1.45,5.34,3.5,7.71,5.25A31.89,31.89,0,0,0,72.7,5a23,23,0,0,0,.7-2.68Z" style="fill:#ff4033"/><path d="M102.66,6.3l2.49,1.52a12.13,12.13,0,0,0-1,2.08,29.47,29.47,0,0,1-5.11,9.74,27.12,27.12,0,0,1-11.76,8.27l-3.44-3.1c5.95-1.78,9.19-4.32,11.76-7.24a20.62,20.62,0,0,0,4.14-7.94H91.54a32,32,0,0,1-7.35,7.07l-3.27-2.46A25.1,25.1,0,0,0,90,4.87a12.77,12.77,0,0,0,1.31-3.06l4.29,1.4c-.7,1-1.46,2.34-1.81,3l-.09.14H99.6A9,9,0,0,0,102.14,6l.2.12a33.87,33.87,0,0,0-2.13-3.77l2.31-.93a41.53,41.53,0,0,1,2.3,4ZM106,.09a42.74,42.74,0,0,1,2.37,4l-2.34,1a27.92,27.92,0,0,0-2.33-4Z" style="fill:#ff4033"/><path d="M117,16.14l-3.56,1.34a60.63,60.63,0,0,0-2.66-6.74l3.5-1.25C115,11,116.42,14.51,117,16.14Zm14.83-6.07c-.35.93-.53,1.55-.7,2.13a23.54,23.54,0,0,1-4,8.55A22.77,22.77,0,0,1,117.39,28l-3.07-3.12a19.69,19.69,0,0,0,9.69-6.1,19.6,19.6,0,0,0,3.71-10Zm-8.38,4.26L120,15.56a48.72,48.72,0,0,0-2.37-6.48l3.48-1.14C121.62,9.19,123.05,13,123.46,14.33Z" style="fill:#ff4033"/><path d="M156.65,6.22a13.93,13.93,0,0,0-1,1.84,42.31,42.31,0,0,1-4.58,8,83.14,83.14,0,0,1,8.15,8.35l-3.33,2.92a64.31,64.31,0,0,0-7.36-8.26,38.1,38.1,0,0,1-11,8.17l-3-3.15a32.71,32.71,0,0,0,12-8.38,22.55,22.55,0,0,0,4.35-7.15h-9.9c-1.22,0-2.83.18-3.44.21V4.61a31.78,31.78,0,0,0,3.44.21h10.31a10.78,10.78,0,0,0,3-.35l.35.26c-.49-.94-1.08-2-1.6-2.75l2.3-1a43.66,43.66,0,0,1,2.34,4l-1.67.7ZM159,5a35.58,35.58,0,0,0-2.36-4L159,0a40.22,40.22,0,0,1,2.37,4Z" style="fill:#ff4033"/><path d="M190.3,3V6H164.78V3h10.8V.55h3.54V3Zm-.94,21.16c0,1.6-.32,2.54-1.46,3.06s-2.62.56-4.73.56a9.61,9.61,0,0,0-.67-2.34H175v1.32h-3V18.92h11.15v5.66c1,0,1.89,0,2.21,0s.56-.12.56-.47V17.6H169.34V27.85H166V14.71h23.41ZM185.51,7.06v6.43H169.57V7.06ZM182,9.37h-9.11v1.78H182Zm-2,11.85H175v1.9H180Z" style="fill:#ff4033"/><path d="M201.75,1.63a50.23,50.23,0,0,1-2.63,5.75V27.82h-3.27V12.58a23.56,23.56,0,0,1-1.78,2.16,26.25,26.25,0,0,0-1.78-3.5A30.3,30.3,0,0,0,198.62.64Zm12.81,4.91v3.65h4.93V27h-3.32V25.54H204.61v1.67h-3.22v-17h4.7V6.54h-5V3.44h18.54v3.1Zm-9.95,16h1.81V13.19h-1.81Zm4.72-9.37v9.37h2V13.19Zm2-6.65h-1.93v3.65h1.93Zm4.88,6.65h-2v9.37h2Z" style="fill:#ff4033"/><path d="M241.57,23c3.09,1,6.45,2.28,8.49,3.18l-3.77,1.73a61,61,0,0,0-8.2-3.39L240.46,23h-8.15l2.54,1.14A36.27,36.27,0,0,1,225.54,28,23.73,23.73,0,0,0,223,25.42,35.53,35.53,0,0,0,231.09,23h-4.5V10.16h19.94V23Zm6.51-14H225V1.78h23.06ZM231.73,4.38h-3.5v2h3.5Zm-1.64,9.4h12.79V12.35H230.09Zm0,3.5h12.79V15.82H230.09Zm0,3.5h12.79V19.32H230.09Zm8.06-16.4h-3.53v2h3.53Zm6.57,0H241v2h3.68Z" style="fill:#ff4033"/><path d="M279.13,4.76c-.61,6.36-2,11.38-4.2,15.29a16,16,0,0,0,5.28,4.73,12.45,12.45,0,0,0-2.39,2.86,18.2,18.2,0,0,1-5-4.46,19.8,19.8,0,0,1-5.2,4.46,13.91,13.91,0,0,0-1.92-2.54v2.75h-3.36V23.18c-3.36.58-6.77,1.11-9.46,1.51l-.67-3.47c.79-.09,1.69-.17,2.69-.29V5.43h-2V2.22h14.65V4.29h8.73l.59-.09Zm-21,.67V8.2h4.15V5.43Zm0,8.81h4.15V11.33h-4.15Zm0,6.28c1.35-.17,2.75-.38,4.15-.55V17.34h-4.15Zm7.51,4.12A15.94,15.94,0,0,0,270.73,20a41.42,41.42,0,0,1-3.94-11.56l3.32-.68a35.09,35.09,0,0,0,2.69,8.64,33.11,33.11,0,0,0,2.51-8.69H266.7V5.43h-1Z" style="fill:#ff4033"/><path d="M288,22.71a3,3,0,0,1,6.07,0,3,3,0,0,1-6.07,0Zm.5-14.89-.12-4.35h5.34l-.14,4.35-1,10h-3Z" style="fill:#ff4033"/></g></g></svg>