<svg xmlns="http://www.w3.org/2000/svg" viewBox="0 0 72.42 13.94"><g id="レイヤー_2" data-name="レイヤー 2"><g id="Contents"><path d="M3.32.3,6.7,8.84,10.08.3H13.4L7.74,13.64H5.66L0,.3Z" style="fill:#ff4033"/><path d="M30,1.94a6.94,6.94,0,0,1,2.08,5A6.9,6.9,0,0,1,30,12a7.12,7.12,0,0,1-5.16,2,7.39,7.39,0,0,1-5.21-2,6.81,6.81,0,0,1-2.08-5A7.49,7.49,0,0,1,19.65,2a7.16,7.16,0,0,1,5.23-2A7.13,7.13,0,0,1,30,1.94Zm-8.1,2a4.09,4.09,0,0,0-1.18,3A4,4,0,0,0,22,10a3.92,3.92,0,0,0,2.86,1.1,4,4,0,0,0,3-1.14A4,4,0,0,0,29,7,4.2,4.2,0,0,0,27.8,4a4.28,4.28,0,0,0-2.94-1.14A4.09,4.09,0,0,0,21.94,4Z" style="fill:#ff4033"/><path d="M41.58.3V13.64H38.5V.3Z" style="fill:#ff4033"/><path d="M58.19,13.22a6.2,6.2,0,0,1-2.94.72A7.15,7.15,0,0,1,50,12a7,7,0,0,1-2.08-5.06,7,7,0,0,1,2.08-5A7.08,7.08,0,0,1,55,0a7.94,7.94,0,0,1,3.2.74V4.3a4.23,4.23,0,0,0-3.12-1.42,3.74,3.74,0,0,0-2.72,1A4.27,4.27,0,0,0,51.09,7a4,4,0,0,0,1.16,2.94,4,4,0,0,0,2.88,1.12,4.21,4.21,0,0,0,3.06-1.38Z" style="fill:#ff4033"/><path d="M72.42,2.9H68V5.48H72.2v2.6H68v3h4.46v2.6H64.88V.3h7.54Z" style="fill:#ff4033"/></g></g></svg>