<svg xmlns="http://www.w3.org/2000/svg" viewBox="0 0 768 114"><g id="レイヤー_2" data-name="レイヤー 2"><g id="Contents"><rect x="119.33" y="48.33" width="17.33" height="17.33" transform="translate(178.2 187.81) rotate(-135)" style="fill:#f6eaee"/><rect width="128" height="114" rx="10" style="fill:#f6eaee"/><circle cx="64.09" cy="40.21" r="16.16" style="fill:#ff4033"/><text transform="translate(57.71 47.48)" style="font-size:20.250749588012695px;fill:#fff;font-family:FuturaPT-Heavy, Futura PT;font-weight:800;letter-spacing:0.20000706399270995em">1</text><text transform="translate(43.58 86.27)" style="font-size:20px;fill:#1a1a1a;font-family:NotoSansJP-Bold-90ms-RKSJ-H, Noto Sans JP">梱包</text><rect x="279.34" y="48.33" width="17.33" height="17.33" transform="translate(451.35 300.95) rotate(-135)" style="fill:#f6eaee"/><rect x="160" width="128" height="114" rx="10" style="fill:#f6eaee"/><circle cx="224.09" cy="40.21" r="16.16" style="fill:#ff4033"/><text transform="translate(217.71 47.48)" style="font-size:20.250749588012695px;fill:#fff;font-family:FuturaPT-Heavy, Futura PT;font-weight:800;letter-spacing:0.20000706399270995em">2</text><text transform="translate(203.58 86.27)" style="font-size:20px;fill:#1a1a1a;font-family:NotoSansJP-Bold-90ms-RKSJ-H, Noto Sans JP">申込</text><rect x="439.33" y="48.33" width="17.33" height="17.33" transform="translate(724.48 414.09) rotate(-135)" style="fill:#f6eaee"/><rect x="320" width="128" height="114" rx="10" style="fill:#f6eaee"/><circle cx="384.09" cy="40.21" r="16.16" style="fill:#ff4033"/><text transform="translate(377.71 47.48)" style="font-size:20.250749588012695px;fill:#fff;font-family:FuturaPT-Heavy, Futura PT;font-weight:800;letter-spacing:0.20000706399270995em">3</text><text transform="translate(363.58 86.27)" style="font-size:20px;fill:#1a1a1a;font-family:NotoSansJP-Bold-90ms-RKSJ-H, Noto Sans JP">荷渡</text><rect x="599.34" y="48.33" width="17.33" height="17.33" transform="translate(997.62 527.23) rotate(-135)" style="fill:#f6eaee"/><rect x="480" width="128" height="114" rx="10" style="fill:#f6eaee"/><circle cx="544.09" cy="40.21" r="16.16" style="fill:#ff4033"/><text transform="translate(537.71 47.48)" style="font-size:20.250749588012695px;fill:#fff;font-family:FuturaPT-Heavy, Futura PT;font-weight:800;letter-spacing:0.20000706399270995em">4</text><text transform="translate(523.58 86.27)" style="font-size:20px;fill:#1a1a1a;font-family:NotoSansJP-Bold-90ms-RKSJ-H, Noto Sans JP">査定</text><rect x="640" width="128" height="114" rx="10" style="fill:#f6eaee"/><circle cx="704.09" cy="40.21" r="16.16" style="fill:#ff4033"/><text transform="translate(697.71 47.48)" style="font-size:20.250749588012695px;fill:#fff;font-family:FuturaPT-Heavy, Futura PT;font-weight:800;letter-spacing:0.20000706399270995em">5</text><text transform="translate(683.58 86.27)" style="font-size:20px;fill:#1a1a1a;font-family:NotoSansJP-Bold-90ms-RKSJ-H, Noto Sans JP">入金</text></g></g></svg>