<?xml version="1.0" encoding="utf-8"?>
<!-- Generator: Adobe Illustrator 27.3.1, SVG Export Plug-In . SVG Version: 6.00 Build 0)  -->
<svg version="1.1" id="レイヤー_1" xmlns="http://www.w3.org/2000/svg" xmlns:xlink="http://www.w3.org/1999/xlink" x="0px"
	 y="0px" viewBox="0 0 922.1 226.1" style="enable-background:new 0 0 922.1 226.1;" xml:space="preserve">
<style type="text/css">
	.st0{opacity:0.25;}
	.st1{fill:#FFFFFF;}
</style>
<g class="st0">
	<g>
		<path class="st1" d="M29.9,2.4c8.3,0,19.9,0.8,29.7,7.3c11.4,7.5,16.9,20.5,16.9,32.9c0,7.9-2,20.1-13.2,29.7
			C52.4,81.5,40,82.9,30.1,82.9h-9.3V138H0V2.4H29.9z M20.7,63.8h9.3c17.9,0,26.4-8.7,26.4-21.3c0-7.5-3-20.9-26.6-20.9h-9.1V63.8z"
			/>
		<path class="st1" d="M154,2.4v116h39.8V138h-60.6V2.4H154z"/>
		<path class="st1" d="M267.2,2.4v81.7c0,7.3,0.2,16.3,4.3,23.4c4.1,6.9,13.2,14,25.2,14c12,0,21.1-7.1,25.2-14
			c4.1-7.1,4.3-16.1,4.3-23.4V2.4h20.7v87.2c0,10.8-2.2,23.8-12.6,35.2c-7.1,7.7-19.1,15.9-37.6,15.9c-18.5,0-30.5-8.1-37.6-15.9
			c-10.4-11.4-12.6-24.4-12.6-35.2V2.4H267.2z"/>
		<path class="st1" d="M474.4,32.5c-1.2-3-3-5.9-6.1-8.5c-4.3-3.5-8.7-4.9-14.6-4.9c-12.6,0-19.1,7.5-19.1,16.3
			c0,4.1,1.4,11.2,14.6,16.5l13.6,5.5c25,10.2,31.9,24.4,31.9,39.8c0,25.8-18.3,43.5-43.7,43.5c-15.6,0-25-5.9-31.9-13.6
			c-7.3-8.1-10.6-17.1-11.4-26.4l20.5-4.5c0,6.7,2.4,13,5.7,17.3c3.9,4.9,9.6,8.1,17.7,8.1c12.6,0,22.4-9.1,22.4-22.8
			c0-13.8-10.6-19.5-19.5-23.2l-13-5.5c-11.2-4.7-27.6-14-27.6-34.3C413.8,17.5,428,0,453.4,0c14.6,0,23,5.5,27.2,9.1
			c3.7,3.3,7.5,7.9,10.4,13.6L474.4,32.5z"/>
		<path class="st1" d="M558.8,84.3h48.8v20.7h-48.8V84.3z"/>
		<path class="st1" d="M695.6,2.4v81.7c0,7.3,0.2,16.3,4.3,23.4c4.1,6.9,13.2,14,25.2,14c12,0,21.1-7.1,25.2-14
			c4.1-7.1,4.3-16.1,4.3-23.4V2.4h20.7v87.2c0,10.8-2.2,23.8-12.6,35.2c-7.1,7.7-19.1,15.9-37.6,15.9s-30.5-8.1-37.6-15.9
			c-10.4-11.4-12.6-24.4-12.6-35.2V2.4H695.6z"/>
		<path class="st1" d="M875.6,2.4c8.3,0,19.9,0.8,29.7,7.3c11.4,7.5,16.9,20.5,16.9,32.9c0,7.9-2,20.1-13.2,29.7
			c-10.8,9.1-23.2,10.6-33.1,10.6h-9.3V138h-20.7V2.4H875.6z M866.5,63.8h9.3c17.9,0,26.4-8.7,26.4-21.3c0-7.5-3-20.9-26.6-20.9
			h-9.1V63.8z"/>
		<path class="st1" d="M199.4,170.9c-7.4-6.7-14.3-7.4-18.1-7.4c-14.5,0-24.3,10.7-24.3,25.4c0,14.1,10.2,25,24.4,25
			c8,0,14.2-4.1,18-7.7v12.1c-6.7,4-13.7,5-18.3,5c-12.1,0-19.7-5.5-23.6-9.2c-7.8-7.3-10.7-15.8-10.7-25.2
			c0-12.3,5.1-20.8,10.7-26.1c6.9-6.5,14.9-8.7,24.1-8.7c6.1,0,12,1.1,17.8,4.8V170.9z"/>
		<path class="st1" d="M271.3,205.9h-28.5l-7.3,16.1h-11l33.2-70.6l31.6,70.6h-11L271.3,205.9z M267.2,196.3l-9.9-22.6L247,196.3
			H267.2z"/>
		<path class="st1" d="M315.6,222l14-71.7l23.2,51.8l23.4-51.8l12.6,71.7h-10.4l-6.8-40.2l-19.4,43.3L333,181.7l-7,40.3H315.6z"/>
		<path class="st1" d="M434.9,155.3c4.1,0,9.8,0.4,14.6,3.6c5.6,3.7,8.3,10.1,8.3,16.2c0,3.9-1,9.9-6.5,14.6
			c-5.3,4.5-11.4,5.2-16.3,5.2h-4.6V222h-10.2v-66.7H434.9z M430.4,185.5h4.6c8.8,0,13-4.3,13-10.5c0-3.7-1.5-10.3-13.1-10.3h-4.5
			V185.5z"/>
		<path class="st1" d="M519.1,205.9h-28.5l-7.3,16.1h-11l33.2-70.6l31.6,70.6h-11L519.1,205.9z M515,196.3l-9.9-22.6l-10.3,22.6H515
			z"/>
		<path class="st1" d="M574.5,155.3V222h-10.2v-66.7H574.5z"/>
		<path class="st1" d="M643.4,187.3h27.5v0.5c0,11.4-3.4,20.7-9.9,27c-6.9,6.7-15.1,8.5-22.7,8.5c-9.7,0-16.6-2.8-22.7-9.1
			c-6.5-6.7-9.9-15.6-9.9-25.2c0-10.4,4.2-19.4,9.7-24.9c5.7-5.8,14.8-10,25.1-10c6,0,12.2,1.3,17.4,4.2c5.5,3.1,8.9,7,10.8,10
			l-8.1,5.7c-2-2.8-5-5.8-8.2-7.6c-3.7-2.2-7.7-2.9-11.8-2.9c-8.7,0-14.3,3.6-17.6,6.9c-4.4,4.4-7.1,11.5-7.1,18.7
			c0,6.7,2.5,13.4,6.9,18.1c4.6,4.9,10.3,6.7,16.7,6.7c5.8,0,10.6-1.7,14.9-5.9c3.7-3.6,5.2-7.5,5.6-11.3h-16.6V187.3z"/>
		<path class="st1" d="M702.2,222v-71.2l48.4,50.7v-46.2h10.2v70.8l-48.4-50.7V222H702.2z"/>
	</g>
</g>
</svg>
