<?xml version="1.0" encoding="utf-8"?>
<!-- Generator: Adobe Illustrator 27.3.1, SVG Export Plug-In . SVG Version: 6.00 Build 0)  -->
<svg version="1.1" id="レイヤー_1" xmlns="http://www.w3.org/2000/svg" xmlns:xlink="http://www.w3.org/1999/xlink" x="0px"
	 y="0px" viewBox="0 0 792.5 69.9" style="enable-background:new 0 0 792.5 69.9;" xml:space="preserve">
<style type="text/css">
	.st0{fill:#FFFFFF;}
	.st1{fill:#FF4033;}
</style>
<g>
	<path class="st0" d="M43.7,13c1,0,2.5-0.1,4-0.3c-0.1-0.4-0.1-0.8-0.1-1.3C47.6,6.8,51.4,3,56,3c4.6,0,8.3,3.8,8.3,8.4
		c0,4.6-3.8,8.3-8.3,8.3c-0.3,0-0.6,0-0.9-0.1l-0.6,2.1c-1.6,6.9-4.6,17.7-10.5,25.5c-6.3,8.4-15.6,15.3-28.1,19.3l-7.6-8.3
		c13.9-3.3,21.8-9.3,27.4-16.5C40.3,36,43,28.1,44,22H11.3c-3.2,0-6.5,0.1-8.3,0.3v-9.9c2,0.3,6,0.6,8.3,0.6H43.7z M60,11.4
		c0-2.2-1.8-4.1-4-4.1c-2.2,0-4.1,1.8-4.1,4.1c0,2.2,1.8,4,4.1,4C58.2,15.4,60,13.6,60,11.4z"/>
	<path class="st0" d="M124.2,29.3c-0.5,0.9-1.1,2.2-1.3,2.9c-2.1,6.8-5.1,13.6-10.4,19.4c-7.1,7.8-16,12.6-25,15.1l-7-7.9
		c10.6-2.2,19-6.8,24.3-12.3c3.8-3.9,6-8.2,7.2-12.1H78.2c-1.7,0-5.2,0.1-8.1,0.4v-9.1c2.9,0.3,6,0.4,8.1,0.4h34.7
		c2.2,0,4.1-0.3,5.1-0.7L124.2,29.3z M76.5,9c2,0.3,4.9,0.4,7.3,0.4h27c2.2,0,5.6-0.1,7.6-0.4v9c-1.9-0.1-5.2-0.2-7.7-0.2H83.8
		c-2.2,0-5.3,0.1-7.3,0.2V9z"/>
	<path class="st0" d="M180,15.3c-0.6,0.8-1.8,2.9-2.5,4.3c-2.4,5.5-6.3,13-11,19.3c6.9,6,15.4,15,19.5,20l-8,6.9
		c-4.6-6.3-11.1-13.4-17.6-19.8c-7.4,7.8-16.7,15.1-26.3,19.7l-7.2-7.6c11.3-4.3,22.1-12.7,28.7-20.1c4.6-5.3,8.9-12.2,10.4-17.2
		h-23.7c-2.9,0-6.8,0.4-8.3,0.5v-9.9c1.9,0.3,6.2,0.5,8.3,0.5H167c3.1,0,5.9-0.4,7.3-0.9L180,15.3z"/>
	<path class="st0" d="M254,15.3c-0.8,0.9-2.1,2.6-2.7,3.6c-3.3,5.5-9.9,14.3-16.9,19.2l-7.2-5.8c5.6-3.4,11.1-9.6,12.9-13h-36.5
		c-2.9,0-5.3,0.2-8.5,0.5v-9.7c2.7,0.4,5.6,0.7,8.5,0.7h37.7c2,0,5.8-0.2,7.1-0.6L254,15.3z M225.5,24.8c0,17.4-0.4,31.6-19.5,41.9
		l-8.1-6.7c2.2-0.8,4.8-2,7.4-3.9c8.9-6.2,10.6-13.6,10.6-25.1c0-2.2-0.1-4.1-0.5-6.3H225.5z"/>
	<path class="st0" d="M275.3,40.7l-8.5,3.2c-1.2-3.8-4.7-13.1-6.4-16.2l8.4-3C270.5,28.3,273.9,36.8,275.3,40.7z M310.8,26.2
		c-0.8,2.2-1.3,3.7-1.7,5.1c-1.8,7.1-4.8,14.4-9.5,20.5c-6.5,8.4-15.3,14.3-23.5,17.4l-7.4-7.5c7.7-2,17.4-7.4,23.2-14.6
		c4.8-6,8.1-15.3,8.9-24L310.8,26.2z M290.8,36.4l-8.4,2.9c-0.8-3.4-3.9-11.9-5.7-15.5l8.3-2.7C286.3,24.1,289.8,33.2,290.8,36.4z"
		/>
	<path class="st0" d="M361.7,13c1,0,2.5-0.1,4-0.3c-0.1-0.4-0.1-0.8-0.1-1.3c0-4.6,3.8-8.4,8.4-8.4c4.6,0,8.3,3.8,8.3,8.4
		c0,4.6-3.8,8.3-8.3,8.3c-0.3,0-0.6,0-0.9-0.1l-0.6,2.1c-1.6,6.9-4.6,17.7-10.5,25.5c-6.3,8.4-15.6,15.3-28.1,19.3l-7.6-8.3
		c13.9-3.3,21.8-9.3,27.4-16.5c4.6-5.8,7.3-13.7,8.3-19.7h-32.6c-3.2,0-6.5,0.1-8.3,0.3v-9.9c2,0.3,6,0.6,8.3,0.6H361.7z
		 M377.9,11.4c0-2.2-1.8-4.1-4-4.1c-2.2,0-4.1,1.8-4.1,4.1c0,2.2,1.8,4,4.1,4C376.1,15.4,377.9,13.6,377.9,11.4z"/>
	<path class="st0" d="M444.9,42.3c-1.8,0.1-4.7,0.6-7.4,1c-3.4,0.6-9,1.5-15.2,2.5c1.1,5.7,2.1,10.4,2.5,12.6
		c0.5,2.1,1.2,4.6,1.8,6.9l-10.1,1.8c-0.4-2.7-0.6-5-1-7.1c-0.4-2-1.3-6.9-2.4-12.7c-7.1,1.2-13.7,2.3-16.7,2.9c-3,0.6-5.4,1-7,1.5
		l-2-9.4c1.9-0.1,5-0.5,7.3-0.8c3.2-0.5,9.7-1.5,16.8-2.7l-2.1-11.2c-6.2,1-11.6,1.9-13.7,2.2c-2.5,0.5-4.3,0.9-6.4,1.5l-1.9-9.7
		c2.2-0.1,4.3-0.2,6.5-0.5c2.5-0.3,7.8-1,13.9-2c-0.6-2.9-1-5.3-1.3-6.4c-0.4-2-0.9-3.6-1.4-5.3l9.9-1.6c0.2,1.4,0.4,3.8,0.8,5.5
		c0.1,1,0.6,3.3,1.1,6.4c6-1,11.3-1.8,13.8-2.3c2.2-0.4,4.9-1,6.6-1.5l1.7,9.2c-1.5,0.1-4.3,0.6-6.4,0.8l-14,2.2l2.2,11.1
		c6.3-1.1,12-2,15.2-2.6c2.7-0.6,5.3-1.1,7.1-1.7L444.9,42.3z"/>
	<path class="st0" d="M485.4,47.1c3.6-3.2,8.4-9.2,10.3-12.6c-1.7,0.4-8.6,1.8-16.2,3.4c2.7,9.6,5.6,20.4,6.7,24
		c0.4,1.3,1.3,4.3,1.9,5.7l-9.5,2.3c-0.2-1.8-0.7-4.1-1.3-6.1c-1-3.8-3.9-14.6-6.4-24.2c-5.9,1.3-11,2.3-13.1,2.8l-2.2-8.4
		c2.2-0.2,4.1-0.4,6.4-0.8c1-0.1,3.5-0.6,6.7-1.2c-0.7-2.7-1.3-5-1.8-6.5c-0.5-1.8-1.2-3.5-2-5l9.4-2.2c0.3,1.7,0.7,3.5,1.1,5.3
		l1.9,6.8c8.9-1.7,18.7-3.6,21.4-4.2c1.3-0.2,2.6-0.6,3.6-1.1l5.6,4c-2.9,6.2-10,16.7-14.9,21.9L485.4,47.1z"/>
	<path class="st0" d="M539.4,47c11.9-7.1,21.1-17.8,25.5-27.2l5.5,9.9c-5.3,9.5-14.6,19.1-25.9,25.9c-7.1,4.3-16.1,8.2-26,9.9
		l-5.9-9.2C523.5,54.6,532.6,51,539.4,47z M539.4,24.3l-7.1,7.4c-3.6-3.9-12.4-11.6-17.5-15.1l6.6-7
		C526.2,12.8,535.3,20.1,539.4,24.3z"/>
	<path class="st0" d="M578.8,37.5c3.2-3.2,8.7-10.1,13.4-15.8c4.2-5,8-5.5,13.7-0.6c4.7,4,9.9,9.5,14.3,14.2
		c4.7,5.1,12.2,13.1,17.2,18.9l-7.5,8.1c-4.5-5.7-10.9-13.5-15-18.3c-4.3-5.2-10.3-11.7-12.9-13.9c-2.5-2.1-3.6-2.1-5.7,0.4
		c-2.7,3.5-7.8,10.4-10.6,14.3c-1.6,2.2-3.3,4.7-4.5,6.5l-8.3-8.5C575.1,41.1,576.7,39.6,578.8,37.5z M625.5,10.8
		c5,0,9.1,4.1,9.1,9.1c0,5-4.1,9-9.1,9c-5,0-9-4-9-9C616.5,14.8,620.5,10.8,625.5,10.8z M625.5,24.3c2.5,0,4.5-2,4.5-4.4
		c0-2.5-2-4.5-4.5-4.5s-4.4,2-4.4,4.5C621.1,22.3,623.1,24.3,625.5,24.3z"/>
	<path class="st0" d="M642.2,30.3c2.5,0.2,7.6,0.4,11.3,0.4h37.6c3.2,0,6.4-0.3,8.2-0.4v11c-1.7-0.1-5.3-0.4-8.2-0.4h-37.6
		c-4,0-8.7,0.1-11.3,0.4V30.3z"/>
	<path class="st0" d="M729.2,47c11.9-7.1,21.1-17.8,25.5-27.2l5.5,9.9c-5.3,9.5-14.6,19.1-25.9,25.9c-7.1,4.3-16.1,8.2-26,9.9
		l-5.9-9.2C713.4,54.6,722.5,51,729.2,47z M729.2,24.3l-7.1,7.4c-3.6-3.9-12.4-11.6-17.5-15.1l6.6-7
		C716.1,12.8,725.2,20.1,729.2,24.3z"/>
	<path class="st0" d="M777.9,56.5c0-4,3.2-6.9,7.3-6.9c4.1,0,7.3,2.9,7.3,6.9c0,4.1-3.2,6.9-7.3,6.9
		C781.1,63.3,777.9,60.5,777.9,56.5z M779.1,20.8l-0.3-10.4h12.8l-0.3,10.4l-2.5,23.9h-7.2L779.1,20.8z"/>
</g>
<g>
	<path class="st1" d="M40.7,10c1,0,2.5-0.1,4-0.3c-0.1-0.4-0.1-0.8-0.1-1.3C44.6,3.8,48.4,0,53,0c4.6,0,8.3,3.8,8.3,8.4
		c0,4.6-3.8,8.3-8.3,8.3c-0.3,0-0.6,0-0.9-0.1l-0.6,2.1c-1.6,6.9-4.6,17.7-10.5,25.5c-6.3,8.4-15.6,15.3-28.1,19.3l-7.6-8.3
		c13.9-3.3,21.8-9.3,27.4-16.5C37.3,33,40,25.1,41,19H8.3c-3.2,0-6.5,0.1-8.3,0.3V9.5C2,9.7,6,10,8.3,10H40.7z M57,8.4
		c0-2.2-1.8-4.1-4-4.1c-2.2,0-4.1,1.8-4.1,4.1c0,2.2,1.8,4,4.1,4C55.2,12.4,57,10.6,57,8.4z"/>
	<path class="st1" d="M121.2,26.3c-0.5,0.9-1.1,2.2-1.3,2.9c-2.1,6.8-5.1,13.6-10.4,19.4c-7.1,7.8-16,12.6-25,15.1l-7-7.9
		c10.6-2.2,19-6.8,24.3-12.3c3.8-3.9,6-8.2,7.2-12.1H75.2c-1.7,0-5.2,0.1-8.1,0.4v-9.1c2.9,0.3,6,0.4,8.1,0.4h34.7
		c2.2,0,4.1-0.3,5.1-0.7L121.2,26.3z M73.5,6c2,0.3,4.9,0.4,7.3,0.4h27c2.2,0,5.6-0.1,7.6-0.4v9c-1.9-0.1-5.2-0.2-7.7-0.2H80.8
		c-2.2,0-5.3,0.1-7.3,0.2V6z"/>
	<path class="st1" d="M177,12.3c-0.6,0.8-1.8,2.9-2.5,4.3c-2.4,5.5-6.3,13-11,19.3c6.9,6,15.4,15,19.5,20l-8,6.9
		c-4.6-6.3-11.1-13.4-17.6-19.8c-7.4,7.8-16.7,15.1-26.3,19.7l-7.2-7.6c11.3-4.3,22.1-12.7,28.7-20.1c4.6-5.3,8.9-12.2,10.4-17.2
		h-23.7c-2.9,0-6.8,0.4-8.3,0.5V8.4c1.9,0.3,6.2,0.5,8.3,0.5H164c3.1,0,5.9-0.4,7.3-0.9L177,12.3z"/>
	<path class="st1" d="M251,12.3c-0.8,0.9-2.1,2.6-2.7,3.6c-3.3,5.5-9.9,14.3-16.9,19.2l-7.2-5.8c5.6-3.4,11.1-9.6,12.9-13h-36.5
		c-2.9,0-5.3,0.2-8.5,0.5V7.1c2.7,0.4,5.6,0.7,8.5,0.7h37.7c2,0,5.8-0.2,7.1-0.6L251,12.3z M222.5,21.8c0,17.4-0.4,31.6-19.5,41.9
		l-8.1-6.7c2.2-0.8,4.8-2,7.4-3.9c8.9-6.2,10.6-13.6,10.6-25.1c0-2.2-0.1-4.1-0.5-6.3H222.5z"/>
	<path class="st1" d="M272.3,37.7l-8.5,3.2c-1.2-3.8-4.7-13.1-6.4-16.2l8.4-3C267.5,25.3,270.9,33.8,272.3,37.7z M307.8,23.2
		c-0.8,2.2-1.3,3.7-1.7,5.1c-1.8,7.1-4.8,14.4-9.5,20.5c-6.5,8.4-15.3,14.3-23.5,17.4l-7.4-7.5c7.7-2,17.4-7.4,23.2-14.6
		c4.8-6,8.1-15.3,8.9-24L307.8,23.2z M287.8,33.4l-8.4,2.9c-0.8-3.4-3.9-11.9-5.7-15.5l8.3-2.7C283.3,21.1,286.8,30.2,287.8,33.4z"
		/>
	<path class="st1" d="M358.7,10c1,0,2.5-0.1,4-0.3c-0.1-0.4-0.1-0.8-0.1-1.3c0-4.6,3.8-8.4,8.4-8.4c4.6,0,8.3,3.8,8.3,8.4
		c0,4.6-3.8,8.3-8.3,8.3c-0.3,0-0.6,0-0.9-0.1l-0.6,2.1c-1.6,6.9-4.6,17.7-10.5,25.5c-6.3,8.4-15.6,15.3-28.1,19.3l-7.6-8.3
		c13.9-3.3,21.8-9.3,27.4-16.5c4.6-5.8,7.3-13.7,8.3-19.7h-32.6c-3.2,0-6.5,0.1-8.3,0.3V9.5c2,0.3,6,0.6,8.3,0.6H358.7z M374.9,8.4
		c0-2.2-1.8-4.1-4-4.1c-2.2,0-4.1,1.8-4.1,4.1c0,2.2,1.8,4,4.1,4C373.1,12.4,374.9,10.6,374.9,8.4z"/>
	<path class="st1" d="M441.9,39.3c-1.8,0.1-4.7,0.6-7.4,1c-3.4,0.6-9,1.5-15.2,2.5c1.1,5.7,2.1,10.4,2.5,12.6
		c0.5,2.1,1.2,4.6,1.8,6.9l-10.1,1.8c-0.4-2.7-0.6-5-1-7.1c-0.4-2-1.3-6.9-2.4-12.7c-7.1,1.2-13.7,2.3-16.7,2.9c-3,0.6-5.4,1-7,1.5
		l-2-9.4c1.9-0.1,5-0.5,7.3-0.8c3.2-0.5,9.7-1.5,16.8-2.7l-2.1-11.2c-6.2,1-11.6,1.9-13.7,2.2c-2.5,0.5-4.3,0.9-6.4,1.5l-1.9-9.7
		c2.2-0.1,4.3-0.2,6.5-0.5c2.5-0.3,7.8-1,13.9-2c-0.6-2.9-1-5.3-1.3-6.4c-0.4-2-0.9-3.6-1.4-5.3l9.9-1.6c0.2,1.4,0.4,3.8,0.8,5.5
		c0.1,1,0.6,3.3,1.1,6.4c6-1,11.3-1.8,13.8-2.3c2.2-0.4,4.9-1,6.6-1.5l1.7,9.2c-1.5,0.1-4.3,0.6-6.4,0.8l-14,2.2l2.2,11.1
		c6.3-1.1,12-2,15.2-2.6c2.7-0.6,5.3-1.1,7.1-1.7L441.9,39.3z"/>
	<path class="st1" d="M482.4,44.1c3.6-3.2,8.4-9.2,10.3-12.6c-1.7,0.4-8.6,1.8-16.2,3.4c2.7,9.6,5.6,20.4,6.7,24
		c0.4,1.3,1.3,4.3,1.9,5.7l-9.5,2.3c-0.2-1.8-0.7-4.1-1.3-6.1c-1-3.8-3.9-14.6-6.4-24.2c-5.9,1.3-11,2.3-13.1,2.8l-2.2-8.4
		c2.2-0.2,4.1-0.4,6.4-0.8c1-0.1,3.5-0.6,6.7-1.2c-0.7-2.7-1.3-5-1.8-6.5c-0.5-1.8-1.2-3.5-2-5l9.4-2.2c0.3,1.7,0.7,3.5,1.1,5.3
		l1.9,6.8c8.9-1.7,18.7-3.6,21.4-4.2c1.3-0.2,2.6-0.6,3.6-1.1l5.6,4c-2.9,6.2-10,16.7-14.9,21.9L482.4,44.1z"/>
	<path class="st1" d="M536.4,44c11.9-7.1,21.1-17.8,25.5-27.2l5.5,9.9c-5.3,9.5-14.6,19.1-25.9,25.9c-7.1,4.3-16.1,8.2-26,9.9
		l-5.9-9.2C520.5,51.6,529.6,48,536.4,44z M536.4,21.3l-7.1,7.4c-3.6-3.9-12.4-11.6-17.5-15.1l6.6-7
		C523.2,9.8,532.3,17.1,536.4,21.3z"/>
	<path class="st1" d="M575.8,34.5c3.2-3.2,8.7-10.1,13.4-15.8c4.2-5,8-5.5,13.7-0.6c4.7,4,9.9,9.5,14.3,14.2
		c4.7,5.1,12.2,13.1,17.2,18.9l-7.5,8.1c-4.5-5.7-10.9-13.5-15-18.3c-4.3-5.2-10.3-11.7-12.9-13.9c-2.5-2.1-3.6-2.1-5.7,0.4
		c-2.7,3.5-7.8,10.4-10.6,14.3c-1.6,2.2-3.3,4.7-4.5,6.5l-8.3-8.5C572.1,38.1,573.7,36.6,575.8,34.5z M622.5,7.8
		c5,0,9.1,4.1,9.1,9.1c0,5-4.1,9-9.1,9c-5,0-9-4-9-9C613.5,11.8,617.5,7.8,622.5,7.8z M622.5,21.3c2.5,0,4.5-2,4.5-4.4
		c0-2.5-2-4.5-4.5-4.5s-4.4,2-4.4,4.5C618.1,19.3,620.1,21.3,622.5,21.3z"/>
	<path class="st1" d="M639.2,27.3c2.5,0.2,7.6,0.4,11.3,0.4h37.6c3.2,0,6.4-0.3,8.2-0.4v11c-1.7-0.1-5.3-0.4-8.2-0.4h-37.6
		c-4,0-8.7,0.1-11.3,0.4V27.3z"/>
	<path class="st1" d="M726.2,44c11.9-7.1,21.1-17.8,25.5-27.2l5.5,9.9c-5.3,9.5-14.6,19.1-25.9,25.9c-7.1,4.3-16.1,8.2-26,9.9
		l-5.9-9.2C710.4,51.6,719.5,48,726.2,44z M726.2,21.3l-7.1,7.4c-3.6-3.9-12.4-11.6-17.5-15.1l6.6-7
		C713.1,9.8,722.2,17.1,726.2,21.3z"/>
	<path class="st1" d="M774.9,53.5c0-4,3.2-6.9,7.3-6.9c4.1,0,7.3,2.9,7.3,6.9c0,4.1-3.2,6.9-7.3,6.9
		C778.1,60.3,774.9,57.5,774.9,53.5z M776.1,17.8l-0.3-10.4h12.8l-0.3,10.4l-2.5,23.9h-7.2L776.1,17.8z"/>
</g>
</svg>
